<svg xmlns="http://www.w3.org/2000/svg" version="1.1" viewBox="539 689.38 971 668.71">
<path d="M0 0 C21.18341027 -0.11673477 42.3667676 -0.20493984 63.55043411 -0.25906086 C73.38610833 -0.2848567 83.22158285 -0.32003355 93.05712891 -0.37719727 C101.62851204 -0.42699004 110.19975058 -0.45928097 118.77127433 -0.47044247 C123.31107972 -0.47696826 127.85047139 -0.49233408 132.39014435 -0.52865028 C136.6616286 -0.56254476 140.93252804 -0.57306636 145.20413399 -0.56553841 C146.77311695 -0.5669159 148.34211912 -0.57688781 149.91098595 -0.59602737 C152.05166942 -0.62086561 154.1901381 -0.6149422 156.33087158 -0.60127258 C157.52920246 -0.60588155 158.72753334 -0.61049051 159.96217728 -0.61523914 C163 0 163 0 165.32200241 2.39770222 C165.87574162 3.25646049 166.42948082 4.11521875 167 5 C167.75095947 6.10782837 167.75095947 6.10782837 168.51708984 7.23803711 C169.23179443 8.3712439 169.23179443 8.3712439 169.9609375 9.52734375 C170.78078125 10.82188477 170.78078125 10.82188477 171.6171875 12.14257812 C172.19726562 13.06490234 172.77734375 13.98722656 173.375 14.9375 C174.63273464 16.9258305 175.89054936 18.91411035 177.1484375 20.90234375 C177.7887793 21.9166748 178.42912109 22.93100586 179.08886719 23.97607422 C182.04784816 28.65797743 185.02427639 33.32872775 188 38 C189.16676159 39.83327292 190.33342798 41.66660644 191.5 43.5 C192.0775 44.4075 192.655 45.315 193.25 46.25 C195 49 196.75 51.75 198.5 54.5 C199.3664917 55.86161255 199.3664917 55.86161255 200.25048828 57.25073242 C201.41556948 59.08159753 202.58060864 60.9124894 203.74560547 62.7434082 C206.68618321 67.36472713 209.62752092 71.9855592 212.5703125 76.60546875 C219.58103654 87.61340062 226.56998833 98.63468089 233.53222656 109.67333984 C236.01983357 113.61660245 238.51006414 117.55820768 241 121.5 C242.00001224 123.0833256 243.00001225 124.66665893 244 126.25 C244.495 127.03375 244.99 127.8175 245.5 128.625 C262 154.75 262 154.75 263.50073242 157.1262207 C264.4982175 158.70553146 265.49577579 160.28479598 266.4934082 161.86401367 C269.03249671 165.88351145 271.57020834 169.90386767 274.10546875 173.92578125 C276.59800231 177.87982086 279.09726178 181.82955808 281.59814453 185.77832031 C282.96780224 187.94897255 284.32662305 190.1260879 285.68359375 192.3046875 C286.49719945 193.59908179 287.31099006 194.89335989 288.125 196.1875 C288.49133545 196.78216064 288.8576709 197.37682129 289.23510742 197.98950195 C290.103443 199.36155093 291.04470857 200.68700977 292 202 C292.66 202 293.32 202 294 202 C295.98 198.04 297.96 194.08 300 190 C300.66 190 301.32 190 302 190 C302.28875 189.0925 302.5775 188.185 302.875 187.25 C303.76531776 184.67797092 304.71494413 182.38653234 306 180 C306.66 180 307.32 180 308 180 C308.25652344 179.12730469 308.51304687 178.25460937 308.77734375 177.35546875 C310.01988029 173.94544035 311.55137072 171.32289602 313.5625 168.3125 C315.4456736 165.48186691 316.92328158 163.23015525 318 160 C318.66 160 319.32 160 320 160 C320.309375 158.824375 320.309375 158.824375 320.625 157.625 C322.4731339 152.75264698 324.9303756 148.22073355 328 144 C328.66 144 329.32 144 330 144 C330.26167969 143.11957031 330.52335937 142.23914063 330.79296875 141.33203125 C331.97967876 138.05609715 333.38323166 135.57498587 335.3125 132.6875 C338.44465135 127.90408895 341.30042516 123.03837701 344 118 C344.66 118 345.32 118 346 118 C346.185625 117.21625 346.37125 116.4325 346.5625 115.625 C348.25318933 111.36152256 350.63238137 108.11039277 353.3125 104.4140625 C355.21408717 101.69373641 356.64811436 99.02186203 358 96 C358.66 96 359.32 96 360 96 C360.309375 94.824375 360.309375 94.824375 360.625 93.625 C362.20187927 89.46777285 364.32424414 85.94131753 366.66015625 82.171875 C368.00546176 80.06323696 368.00546176 80.06323696 369 78 C369.66 78 370.32 78 371 78 C371.309375 77.05125 371.61875 76.1025 371.9375 75.125 C373 72 373 72 374 70 C374.66 70 375.32 70 376 70 C376.3403125 68.7625 376.3403125 68.7625 376.6875 67.5 C377.73039644 64.71894282 378.68731897 62.74797793 380.2578125 60.296875 C380.70310303 59.59691406 381.14839355 58.89695312 381.60717773 58.17578125 C382.06680908 57.45777344 382.52644043 56.73976563 383 56 C383.86974021 54.62057941 384.73824621 53.2403798 385.60546875 51.859375 C386.90684653 49.78819585 388.20827117 47.71708427 389.51367188 45.6484375 C389.93583984 44.97554687 390.35800781 44.30265625 390.79296875 43.609375 C391.1696167 43.01092773 391.54626465 42.41248047 391.93432617 41.79589844 C393.05581975 39.90593125 394.03992221 37.97616691 395 36 C395.66 36 396.32 36 397 36 C398.07525194 33.34771188 399.09456151 30.71631546 400 28 C400.66 28 401.32 28 402 28 C402.309375 26.824375 402.309375 26.824375 402.625 25.625 C404.49692528 20.68992427 407.19454377 16.45572461 410 12 C410.63164063 10.99195313 411.26328125 9.98390625 411.9140625 8.9453125 C416.80721831 1.19278169 416.80721831 1.19278169 418 0 C419.69927495 -0.09908285 421.40270242 -0.12739664 423.10486317 -0.12863445 C424.21820681 -0.1318589 425.33155046 -0.13508335 426.47863179 -0.1384055 C427.71728685 -0.1368569 428.9559419 -0.1353083 430.23213196 -0.13371277 C431.5363015 -0.13597833 432.84047105 -0.13824388 434.18416089 -0.14057809 C437.82196053 -0.14672741 441.45973731 -0.14655878 445.09754097 -0.14538372 C449.01561792 -0.14518044 452.93368737 -0.15069209 456.85176086 -0.15544128 C464.54194627 -0.16377035 472.23212401 -0.16649732 479.92231355 -0.16705366 C486.18539975 -0.16752866 492.44848343 -0.16958266 498.71156883 -0.17275429 C516.49318262 -0.18157439 534.27479036 -0.18617266 552.05640636 -0.18542381 C553.01627126 -0.18538386 553.97613617 -0.1853439 554.96508789 -0.18530273 C555.92613688 -0.18526185 556.88718588 -0.18522097 557.87735756 -0.18517885 C573.3845187 -0.18477412 588.89165534 -0.19429631 604.39880941 -0.2084411 C620.34571301 -0.22287097 636.29260473 -0.22970737 652.23951501 -0.22884732 C661.18190204 -0.22851716 670.12426355 -0.23118288 679.06664467 -0.24202538 C686.69793672 -0.25121866 694.32919174 -0.25323515 701.96048699 -0.24651595 C705.8423744 -0.24329185 709.72419116 -0.24304065 713.60607147 -0.2518692 C737.65561246 -0.30310853 761.79940094 0.1221842 785.5625 4.1875 C787.47554932 4.50678467 787.47554932 4.50678467 789.42724609 4.83251953 C802.4967525 7.07668018 815.27904329 10.27894571 828 14 C828.91362305 14.26506348 829.82724609 14.53012695 830.76855469 14.80322266 C870.75738831 26.6454413 908.20440115 48.18227347 940 75 C941.03738035 75.86243653 942.07515543 76.72439844 943.11328125 77.5859375 C948.92295774 82.42908395 954.61280997 87.38765839 960.1875 92.5 C961.01677002 93.2566394 961.01677002 93.2566394 961.86279297 94.02856445 C964.26147025 96.24988271 966.17656133 98.26484199 968 101 C954.20155039 113.8875969 954.20155039 113.8875969 948.0390625 119.2109375 C943.81334473 122.91855961 939.70000789 126.75296671 935.56445312 130.56054688 C933.04638248 132.87742337 930.52294563 135.18843519 928 137.5 C926.99608702 138.42056558 925.99218077 139.3411385 924.98828125 140.26171875 C923.02903139 142.05785707 921.06776748 143.85171581 919.10546875 145.64453125 C911.70177815 152.41390298 904.35260388 159.23982271 897.03125 166.09814453 C895.6441018 167.39692872 894.25603985 168.69473751 892.8671875 169.99169922 C890.68032626 172.03404342 888.496017 174.07908117 886.3125 176.125 C885.24443115 177.12297607 885.24443115 177.12297607 884.15478516 178.14111328 C880.82841525 181.26635027 877.55708247 184.41951816 874.3984375 187.71484375 C873.5779895 188.5663501 873.5779895 188.5663501 872.7409668 189.43505859 C871.73329907 190.4907105 870.73656697 191.55695286 869.75317383 192.63525391 C868.41796875 194.03515625 868.41796875 194.03515625 866 196 C863.75390625 195.9375 863.75390625 195.9375 862 195 C860.75 192.9375 860.75 192.9375 860 191 C859.34 191 858.68 191 858 191 C856.84460107 189.87961316 855.69606056 188.75164252 854.57421875 187.59765625 C842.06515275 174.90235106 826.76636991 165.1456385 811 157 C810.33564941 156.65485352 809.67129883 156.30970703 808.98681641 155.95410156 C794.48838287 148.52526744 779.17832453 143.1165834 763.25 139.6875 C762.56760254 139.54022461 761.88520508 139.39294922 761.18212891 139.24121094 C747.44223513 136.51810365 733.66203382 135.61892751 719.6875 135.6875 C718.9278595 135.68899048 718.16821899 135.69048096 717.38555908 135.6920166 C705.36094077 135.73425359 693.78545085 136.46779008 682 139 C681.27796387 139.14453613 680.55592773 139.28907227 679.81201172 139.43798828 C653.34498251 144.7644263 628.78863226 156.14050371 607 172 C606.39961914 172.42684082 605.79923828 172.85368164 605.18066406 173.29345703 C587.88493349 185.66910218 573.10755311 201.58831005 561 219 C560.58073242 219.60118652 560.16146484 220.20237305 559.72949219 220.82177734 C546.45591379 240.10877041 537.17359976 261.07205378 531.625 283.8125 C531.26692261 285.27719727 531.26692261 285.27719727 530.90161133 286.77148438 C527.70761888 300.66101972 526.61549473 314.41670161 526.6875 328.625 C526.68973572 329.72785843 526.68973572 329.72785843 526.6920166 330.85299683 C526.73754503 343.42308941 527.59001651 355.63844675 530 368 C530.13921875 368.73347656 530.2784375 369.46695312 530.421875 370.22265625 C533.98822435 388.41764227 540.17201042 405.72169477 549 422 C549.51433594 422.99257812 550.02867187 423.98515625 550.55859375 425.0078125 C557.07745276 437.40954428 565.27290077 448.49496919 574.5 459 C577 462 577 462 577 464 C577.66 464 578.32 464 579 464 C579 464.66 579 465.32 579 466 C579.66 466 580.32 466 581 466 C581 466.66 581 467.32 581 468 C581.66 468 582.32 468 583 468 C585.125 469.875 585.125 469.875 587 472 C587 472.66 587 473.32 587 474 C587.66 474 588.32 474 589 474 C589 474.66 589 475.32 589 476 C589.66 476 590.32 476 591 476 C591 476.66 591 477.32 591 478 C592.65 478.66 594.3 479.32 596 480 C596 480.66 596 481.32 596 482 C597.65 482.66 599.3 483.32 601 484 C601 484.66 601 485.32 601 486 C601.763125 486.28875 602.52625 486.5775 603.3125 486.875 C606 488 606 488 609 490 C609 490.66 609 491.32 609 492 C609.99 492 610.98 492 612 492 C612 492.66 612 493.32 612 494 C612.99 494 613.98 494 615 494 C615 494.66 615 495.32 615 496 C615.99 496 616.98 496 618 496 C618 496.66 618 497.32 618 498 C618.598125 498.144375 619.19625 498.28875 619.8125 498.4375 C621.56150404 498.8872439 623.28677023 499.42892341 625 500 C625 500.66 625 501.32 625 502 C625.58249512 502.12979248 626.16499023 502.25958496 626.76513672 502.39331055 C628.92434852 502.97946319 630.74854757 503.73231852 632.7578125 504.70703125 C633.81210449 505.21314941 633.81210449 505.21314941 634.88769531 505.72949219 C635.62600586 506.08688477 636.36431641 506.44427734 637.125 506.8125 C650.94259703 513.3920306 664.66088082 518.45302895 679.79541016 521.04907227 C684.82570945 521.91285472 684.82570945 521.91285472 687 523 C698.28911798 524.92273833 709.5095821 525.40443194 720.9375 525.375 C721.74026367 525.37445618 722.54302734 525.37391235 723.37011719 525.37335205 C747.18813352 525.29965769 771.08451584 521.74321402 793 512 C794.37051528 511.48783512 795.7446841 510.98513195 797.125 510.5 C799.46235105 509.64028467 801.34801775 508.79118935 803.5 507.5 C805.68021911 506.19186853 807.49416929 505.43685415 809.875 504.625 C812.90866732 503.55260721 815.23943354 502.24365981 817.8125 500.3125 C821 498 821 498 824 498 C824 497.34 824 496.68 824 496 C830.75 492 830.75 492 833 492 C833 491.34 833 490.68 833 490 C838.41176471 486 838.41176471 486 841 486 C841 485.34 841 484.68 841 484 C842.65 483.34 844.3 482.68 846 482 C846 481.34 846 480.68 846 480 C846.66 480 847.32 480 848 480 C848 479.34 848 478.68 848 478 C852.47058824 474 852.47058824 474 855 474 C855 473.34 855 472.68 855 472 C855.66 472 856.32 472 857 472 C857 471.34 857 470.68 857 470 C857.66 470 858.32 470 859 470 C859 469.34 859 468.68 859 468 C859.66 468 860.32 468 861 468 C861.2475 467.360625 861.495 466.72125 861.75 466.0625 C863 464 863 464 864.8203125 463.12890625 C867 463 867 463 869.0703125 464.6171875 C869.74835937 465.36226562 870.42640625 466.10734375 871.125 466.875 C873.7536283 469.84692355 873.7536283 469.84692355 877 472 C877 472.66 877 473.32 877 474 C877.66 474 878.32 474 879 474 C879 474.66 879 475.32 879 476 C879.66 476 880.32 476 881 476 C881 476.66 881 477.32 881 478 C881.58523438 478.25652344 882.17046875 478.51304687 882.7734375 478.77734375 C885.19234608 480.10562162 886.73198872 481.56524801 888.625 483.5625 C891.04521959 486.14015389 891.04521959 486.14015389 894 488 C894 488.66 894 489.32 894 490 C894.66 490 895.32 490 896 490 C896 490.66 896 491.32 896 492 C897.65 492.66 899.3 493.32 901 494 C901 494.66 901 495.32 901 496 C901.66 496 902.32 496 903 496 C903 496.66 903 497.32 903 498 C903.66 498 904.32 498 905 498 C905 498.66 905 499.32 905 500 C905.66 500 906.32 500 907 500 C907 500.66 907 501.32 907 502 C907.66 502 908.32 502 909 502 C909 502.66 909 503.32 909 504 C909.56203125 504.2475 910.1240625 504.495 910.703125 504.75 C913.39092569 506.21274867 915.46405482 507.96804873 917.75 510 C918.94882813 511.051875 918.94882813 511.051875 920.171875 512.125 C922 514 922 514 922 516 C922.598125 516.28875 923.19625 516.5775 923.8125 516.875 C926 518 926 518 929 520 C929 520.66 929 521.32 929 522 C929.66 522 930.32 522 931 522 C931 522.66 931 523.32 931 524 C931.66 524 932.32 524 933 524 C933 524.66 933 525.32 933 526 C933.58265625 526.268125 934.1653125 526.53625 934.765625 526.8125 C937.02786601 528.01480991 938.80576318 529.33825913 940.75 531 C941.36359375 531.515625 941.9771875 532.03125 942.609375 532.5625 C944 534 944 534 944 536 C944.58265625 536.268125 945.1653125 536.53625 945.765625 536.8125 C948.02786601 538.01480991 949.80576318 539.33825913 951.75 541 C952.36359375 541.515625 952.9771875 542.03125 953.609375 542.5625 C955 544 955 544 955 546 C956.65 546.66 958.3 547.32 960 548 C960 548.66 960 549.32 960 550 C960.66 550 961.32 550 962 550 C962 550.66 962 551.32 962 552 C962.66 552 963.32 552 964 552 C964 552.66 964 553.32 964 554 C964.598125 554.28875 965.19625 554.5775 965.8125 554.875 C968 556 968 556 971 558 C971 558.99 971 559.98 971 561 C969.57382713 562.26033881 968.13768364 563.51223901 966.640625 564.6875 C963.57220489 567.14223609 960.92096964 570.04099031 958.203125 572.87109375 C957.57921875 573.51175781 956.9553125 574.15242188 956.3125 574.8125 C955.73113281 575.41707031 955.14976562 576.02164063 954.55078125 576.64453125 C953 578 953 578 951 578 C951 578.66 951 579.32 951 580 C950.34 580 949.68 580 949 580 C949 580.66 949 581.32 949 582 C944.52941176 586 944.52941176 586 942 586 C942 586.66 942 587.32 942 588 C940.35 588.66 938.7 589.32 937 590 C937 590.66 937 591.32 937 592 C935.09480998 593.60981172 933.19744338 595.09503268 931.1875 596.5625 C930.64029297 596.97435547 930.09308594 597.38621094 929.52929688 597.81054688 C927.03006899 599.66149019 924.97037715 601.00987428 922 602 C922 602.66 922 603.32 922 604 C921.01 604 920.02 604 919 604 C919 604.66 919 605.32 919 606 C917.5222168 607.23339844 917.5222168 607.23339844 915.44921875 608.609375 C914.69350586 609.1137207 913.93779297 609.61806641 913.15917969 610.13769531 C912.34352539 610.66975586 911.52787109 611.20181641 910.6875 611.75 C909.86024414 612.29495117 909.03298828 612.83990234 908.18066406 613.40136719 C903.1244753 616.70163275 898.03028219 619.80728171 892.66796875 622.58984375 C889.56773452 624.22847414 886.57797635 626.02282704 883.5625 627.8125 C875.42098041 632.55236301 866.83931623 636.3025158 858.20458984 640.04394531 C856.41947967 640.81808612 854.64040905 641.60614391 852.86328125 642.3984375 C788.25056354 670.50732783 713.11010043 674.46694769 644.75683594 659.58740234 C639.92822869 658.5585652 635.07467655 657.6636907 630.21875 656.7734375 C627.01949895 656.00468543 624.10743812 654.95312852 621.04882812 653.76269531 C617.75612806 652.53695711 614.38202668 651.63104223 611 650.6875 C604.99774632 648.96475444 599.10171012 647.05642692 593.25 644.875 C592.59515625 644.63354248 591.9403125 644.39208496 591.265625 644.14331055 C587.5898788 642.74432537 584.33925093 641.06247851 581 639 C579.329375 638.4121875 579.329375 638.4121875 577.625 637.8125 C571.36677528 635.56474443 565.61193196 632.16239112 559.79394531 628.97705078 C558.2522744 628.13739822 556.70121508 627.31502439 555.1484375 626.49609375 C546.83665293 622.08909015 538.91980496 617.06694019 531 612 C530.37722168 611.60393555 529.75444336 611.20787109 529.11279297 610.79980469 C527.40290924 609.70862584 525.70119683 608.60467326 524 607.5 C523.030625 606.8709375 522.06125 606.241875 521.0625 605.59375 C520.381875 605.0678125 519.70125 604.541875 519 604 C519 603.34 519 602.68 519 602 C518.01 602 517.02 602 516 602 C516 601.34 516 600.68 516 600 C515.236875 599.71125 514.47375 599.4225 513.6875 599.125 C511 598 511 598 508 596 C508 595.34 508 594.68 508 594 C507.401875 593.71125 506.80375 593.4225 506.1875 593.125 C504 592 504 592 501 590 C501 589.34 501 588.68 501 588 C500.401875 587.71125 499.80375 587.4225 499.1875 587.125 C497 586 497 586 494 584 C494 583.34 494 582.68 494 582 C493.401875 581.71125 492.80375 581.4225 492.1875 581.125 C490 580 490 580 487 578 C487 577.34 487 576.68 487 576 C486.34 576 485.68 576 485 576 C485 575.34 485 574.68 485 574 C484.34 574 483.68 574 483 574 C483 573.34 483 572.68 483 572 C482.34 572 481.68 572 481 572 C481 571.34 481 570.68 481 570 C480.34 570 479.68 570 479 570 C479 569.34 479 568.68 479 568 C478.38125 567.7525 477.7625 567.505 477.125 567.25 C474.64931313 565.79371361 474.04874998 564.62187494 473 562 C472.34 562 471.68 562 471 562 C471 561.34 471 560.68 471 560 C470.34 560 469.68 560 469 560 C469 559.34 469 558.68 469 558 C468.34 558 467.68 558 467 558 C462 552.52380952 462 552.52380952 462 550 C461.34 550 460.68 550 460 550 C460 549.34 460 548.68 460 548 C459.34 548 458.68 548 458 548 C455 544.53846154 455 544.53846154 455 542 C454.34 542 453.68 542 453 542 C452.67 540.68 452.34 539.36 452 538 C451.34 538 450.68 538 450 538 C450 537.34 450 536.68 450 536 C449.34 536 448.68 536 448 536 C447.67 534.68 447.34 533.36 447 532 C446.34 532 445.68 532 445 532 C443.84375 530.55859375 443.84375 530.55859375 442.5 528.4375 C440.5971975 525.46727171 438.68000104 522.51934668 436.6640625 519.625 C430.54703961 510.78122631 425.61185782 501.70300802 421 492 C420.43152344 490.89785156 419.86304688 489.79570313 419.27734375 488.66015625 C418 486 418 486 418 484 C417.34 484 416.68 484 416 484 C415.566875 482.5459375 415.566875 482.5459375 415.125 481.0625 C414.35785318 477.89335797 414.35785318 477.89335797 412 477 C412 476.01 412 475.02 412 474 C411.34 474 410.68 474 410 474 C410.06058594 474.60247559 410.12117188 475.20495117 410.18359375 475.82568359 C413.54076419 509.84285864 414.06762493 546.15301816 400 578 C399.5671167 578.98129883 399.5671167 578.98129883 399.12548828 579.98242188 C395.46155152 588.10688954 391.13988342 595.6326684 386.125 603 C385.64844971 603.70125 385.17189941 604.4025 384.6809082 605.125 C383.51072152 606.79135592 382.26212822 608.40215418 381 610 C380.34 610 379.68 610 379 610 C378.6596875 610.8353125 378.6596875 610.8353125 378.3125 611.6875 C376.6407496 614.63296499 374.41718785 616.64324185 372 619 C371.34 619.99 370.68 620.98 370 622 C369.34 622 368.68 622 368 622 C368 622.66 368 623.32 368 624 C367.34 624 366.68 624 366 624 C366 624.66 366 625.32 366 626 C361.52941176 630 361.52941176 630 359 630 C359 630.66 359 631.32 359 632 C353.58823529 636 353.58823529 636 351 636 C351 636.66 351 637.32 351 638 C345.2614666 642.90356161 338.13691159 646.08002611 331.39453125 649.34375 C329.41625081 650.30898695 327.44853998 651.29780573 325.51171875 652.34375 C314.18852606 658.44536679 301.68490078 661.89927756 289.125 664.375 C287.87916138 664.62648804 287.87916138 664.62648804 286.6081543 664.88305664 C281.92194146 665.74043161 277.44691153 666.07634662 272.67919922 666.04150391 C271.61176483 666.03551178 270.54433044 666.02951965 269.44454956 666.02334595 C268.63784821 666.01564178 267.83114685 666.00793762 267 666 C267.0060963 664.12674372 267.0060963 664.12674372 267.01231575 662.21564388 C267.10671364 632.52077278 267.14922004 602.82631657 267.12847102 573.13132372 C267.12595803 569.47044321 267.12387975 565.80956257 267.12207031 562.14868164 C267.12151905 561.0555327 267.12151905 561.0555327 267.12095664 559.94029994 C267.11605334 548.1650447 267.14630576 536.39013189 267.18972255 524.61496698 C267.23353688 512.51799078 267.23917232 500.42142358 267.2099179 488.32440144 C267.19458105 481.53556696 267.19644179 474.74767228 267.24249649 467.95895195 C267.2841688 461.56037394 267.27847606 455.16353447 267.23747826 448.76496887 C267.23064703 446.42498433 267.24067193 444.08487584 267.26943016 441.74505806 C267.4426644 426.6533701 265.71191619 417.64839357 256 406 C254.68973334 404.00478558 253.40489801 401.99224406 252.1640625 399.953125 C251.58124512 399.01637939 250.99842773 398.07963379 250.39794922 397.11450195 C249.81287598 396.16921631 249.22780273 395.22393066 248.625 394.25 C247.32851951 392.16511921 246.03163978 390.08048663 244.734375 387.99609375 C244.10337891 386.98144043 243.47238281 385.96678711 242.82226562 384.92138672 C240.19280936 380.70594277 237.53518006 376.50859619 234.875 372.3125 C230.74809046 365.79730708 226.67371678 359.25154061 222.625 352.6875 C216.43488698 342.65809049 210.1199166 332.71123303 203.77490234 322.77929688 C200.80364434 318.12664198 197.8390946 313.46972074 194.875 308.8125 C194.29387451 307.89952148 193.71274902 306.98654297 193.11401367 306.04589844 C187.87488886 297.8109916 182.66118381 289.56018785 177.45458984 281.3046875 C176.00918211 279.01454836 174.56159316 276.72580343 173.11328125 274.4375 C167.5882921 265.70534914 162.09416907 256.95473099 156.625 248.1875 C150.57815809 238.49679067 144.4669742 228.84887113 138.32421875 219.21875 C135.24182273 214.3850128 132.18090137 209.53801417 129.125 204.6875 C122.49798187 194.17702032 115.79140858 183.71768266 109.08642578 173.25683594 C106.99198784 169.98749331 104.89989612 166.71666162 102.80859375 163.4453125 C96.97721016 154.32450094 91.14485675 145.20495489 85.25 136.125 C80.93335821 129.47584292 76.69473647 122.77957191 72.47070312 116.07128906 C68.82755752 110.29242553 65.13462011 104.54807365 61.41479492 98.81835938 C57.35570342 92.56151588 53.33110652 86.28290978 49.3125 80 C48.63566162 78.94192139 47.95882324 77.88384277 47.26147461 76.79370117 C43.79777634 71.37777367 40.3359863 65.96062958 36.875 60.54296875 C30.69144294 50.86677165 24.5007945 41.1954444 18.25 31.5625 C17.73195801 30.76287842 17.21391602 29.96325684 16.68017578 29.1394043 C14.00707157 25.02878087 11.29538799 20.94972968 8.52734375 16.90234375 C7.68671387 15.66665649 7.68671387 15.66665649 6.82910156 14.40600586 C5.76241013 12.84261441 4.68794439 11.28448906 3.60449219 9.73266602 C2.89341309 8.68937134 2.89341309 8.68937134 2.16796875 7.625 C1.74797607 7.01914062 1.3279834 6.41328125 0.89526367 5.7890625 C0 4 0 4 0 0 Z " fill="#1280BC" transform="translate(539,690)"/>
<path d="M0 0 C21.18341027 -0.11673477 42.3667676 -0.20493984 63.55043411 -0.25906086 C73.38610833 -0.2848567 83.22158285 -0.32003355 93.05712891 -0.37719727 C101.62851204 -0.42699004 110.19975058 -0.45928097 118.77127433 -0.47044247 C123.31107972 -0.47696826 127.85047139 -0.49233408 132.39014435 -0.52865028 C136.6616286 -0.56254476 140.93252804 -0.57306636 145.20413399 -0.56553841 C146.77311695 -0.5669159 148.34211912 -0.57688781 149.91098595 -0.59602737 C152.05166942 -0.62086561 154.1901381 -0.6149422 156.33087158 -0.60127258 C157.52920246 -0.60588155 158.72753334 -0.61049051 159.96217728 -0.61523914 C163 0 163 0 165.32200241 2.39770222 C165.87574162 3.25646049 166.42948082 4.11521875 167 5 C167.75095947 6.10782837 167.75095947 6.10782837 168.51708984 7.23803711 C169.23179443 8.3712439 169.23179443 8.3712439 169.9609375 9.52734375 C170.78078125 10.82188477 170.78078125 10.82188477 171.6171875 12.14257812 C172.19726562 13.06490234 172.77734375 13.98722656 173.375 14.9375 C174.63273464 16.9258305 175.89054936 18.91411035 177.1484375 20.90234375 C177.7887793 21.9166748 178.42912109 22.93100586 179.08886719 23.97607422 C182.04784816 28.65797743 185.02427639 33.32872775 188 38 C189.16676159 39.83327292 190.33342798 41.66660644 191.5 43.5 C192.0775 44.4075 192.655 45.315 193.25 46.25 C195 49 196.75 51.75 198.5 54.5 C199.3664917 55.86161255 199.3664917 55.86161255 200.25048828 57.25073242 C201.41556948 59.08159753 202.58060864 60.9124894 203.74560547 62.7434082 C206.68618321 67.36472713 209.62752092 71.9855592 212.5703125 76.60546875 C219.58103654 87.61340062 226.56998833 98.63468089 233.53222656 109.67333984 C236.01983357 113.61660245 238.51006414 117.55820768 241 121.5 C242.00001224 123.0833256 243.00001225 124.66665893 244 126.25 C244.495 127.03375 244.99 127.8175 245.5 128.625 C262 154.75 262 154.75 263.50073242 157.1262207 C264.4982175 158.70553146 265.49577579 160.28479598 266.4934082 161.86401367 C269.03249671 165.88351145 271.57020834 169.90386767 274.10546875 173.92578125 C274.61682373 174.73635986 275.12817871 175.54693848 275.6550293 176.38208008 C276.66677248 177.98665287 277.67737546 179.59194523 278.68676758 181.19799805 C280.99148486 184.85744032 283.31651681 188.49742429 285.71875 192.09375 C286.13745361 192.72563232 286.55615723 193.35751465 286.98754883 194.00854492 C288.10217775 195.68423019 289.2283563 197.35221716 290.35546875 199.01953125 C292.1873257 202.33950003 292.99535896 204.19899233 293 208 C291.91131432 211.26834983 290.40539292 214.29356506 288.875 217.375 C285.04914253 225.46770623 281.96490628 233.41219972 279.56494141 242.02685547 C278.99330782 244.02337348 278.36776826 245.99620885 277.73046875 247.97265625 C271.1526316 269.02619301 268.91370211 292.08035794 268.79467773 314.08081055 C268.78477814 315.23333817 268.77487854 316.38586578 268.76467896 317.57331848 C268.73334698 321.34443174 268.70841961 325.11555754 268.68359375 328.88671875 C268.66299972 331.51658944 268.64200264 334.14645701 268.62062073 336.77632141 C268.57096507 342.96664231 268.52592714 349.1569876 268.48259836 355.34735566 C268.43299215 362.40191871 268.37816175 369.45643823 268.32291877 376.51095903 C268.20951589 391.00726473 268.10258822 405.50361377 268 420 C263.91499797 418.16930602 262.10911876 415.69844125 259.75 412 C259.32944336 411.35554932 258.90888672 410.71109863 258.47558594 410.04711914 C253.57295496 402.4653649 248.88582215 394.74500054 244.17358398 387.04418945 C239.22725115 378.9648894 234.18393382 370.95450577 229.0769043 362.97607422 C225.17715015 356.8750516 221.35293345 350.73192462 217.5625 344.5625 C213.0547954 337.2325088 208.41613075 330.00176667 203.6875 322.8125 C197.50558889 313.41089365 191.57071142 303.87487857 185.70214844 294.27514648 C181.60781784 287.58603638 177.43618468 280.9616567 173.14477539 274.39770508 C169.24545638 268.41894207 165.46147179 262.3710083 161.6875 256.3125 C156.83090138 248.51613865 151.94314683 240.74178875 147 233 C142.05685114 225.25820806 137.16937529 217.48369109 132.3125 209.6875 C127.68986988 202.27189615 123.02726916 194.88776177 118.26171875 187.56323242 C114.24837559 181.39476494 110.27705002 175.19992693 106.3125 169 C105.63469482 167.94006836 104.95688965 166.88013672 104.25854492 165.78808594 C102.86872468 163.61447838 101.47899571 161.44081248 100.08935547 159.26708984 C98.03090722 156.0483291 95.97084631 152.83060713 93.91015625 149.61328125 C87.48754885 139.5850267 81.07425034 129.55113517 74.6875 119.5 C70.26032513 112.5340362 65.80479489 105.58786074 61.31201172 98.6640625 C57.28822394 92.45800423 53.29804501 86.23067318 49.3125 80 C48.63550049 78.94167969 47.95850098 77.88335938 47.26098633 76.79296875 C43.79746968 71.37727334 40.33582837 65.96038235 36.875 60.54296875 C30.69144294 50.86677165 24.5007945 41.1954444 18.25 31.5625 C17.73195801 30.76287842 17.21391602 29.96325684 16.68017578 29.1394043 C14.00707157 25.02878087 11.29538799 20.94972968 8.52734375 16.90234375 C7.68671387 15.66665649 7.68671387 15.66665649 6.82910156 14.40600586 C5.76241013 12.84261441 4.68794439 11.28448906 3.60449219 9.73266602 C2.89341309 8.68937134 2.89341309 8.68937134 2.16796875 7.625 C1.74797607 7.01914062 1.3279834 6.41328125 0.89526367 5.7890625 C0 4 0 4 0 0 Z " fill="#0E2E3D" transform="translate(539,690)"/>
<path d="M0 0 C1.79166504 0.02073004 3.58333174 0.04131761 5.375 0.06176758 C20.88291856 0.31864432 35.97333409 1.88891429 51.25 4.625 C52.29462402 4.80691895 53.33924805 4.98883789 54.41552734 5.17626953 C79.35798593 9.62275849 103.18293504 17.2031333 126.25 27.625 C127.26803711 28.07858887 128.28607422 28.53217773 129.33496094 28.99951172 C151.61234901 38.99684629 172.10827606 51.47283891 191.25 66.625 C192.15363281 67.32882812 193.05726563 68.03265625 193.98828125 68.7578125 C203.4304367 76.19708649 212.57854661 84.0017082 221.4375 92.125 C221.99026611 92.6293457 222.54303223 93.13369141 223.11254883 93.65332031 C225.51129382 95.87472911 227.42649856 97.88974784 229.25 100.625 C215.45155039 113.5125969 215.45155039 113.5125969 209.2890625 118.8359375 C205.06334473 122.54355961 200.95000789 126.37796671 196.81445312 130.18554688 C194.29638248 132.50242337 191.77294563 134.81343519 189.25 137.125 C188.24608702 138.04556558 187.24218077 138.9661385 186.23828125 139.88671875 C184.27903139 141.68285707 182.31776748 143.47671581 180.35546875 145.26953125 C172.95177815 152.03890298 165.60260388 158.86482271 158.28125 165.72314453 C156.8941018 167.02192872 155.50603985 168.31973751 154.1171875 169.61669922 C151.93032626 171.65904342 149.746017 173.70408117 147.5625 175.75 C146.49443115 176.74797607 146.49443115 176.74797607 145.40478516 177.76611328 C142.07841525 180.89135027 138.80708247 184.04451816 135.6484375 187.33984375 C135.10147217 187.90751465 134.55450684 188.47518555 133.9909668 189.06005859 C132.98329907 190.1157105 131.98656697 191.18195286 131.00317383 192.26025391 C129.66796875 193.66015625 129.66796875 193.66015625 127.25 195.625 C125.00390625 195.5625 125.00390625 195.5625 123.25 194.625 C122 192.5625 122 192.5625 121.25 190.625 C120.59 190.625 119.93 190.625 119.25 190.625 C118.09460107 189.50461316 116.94606056 188.37664252 115.82421875 187.22265625 C103.31515275 174.52735106 88.01636991 164.7706385 72.25 156.625 C71.58564941 156.27985352 70.92129883 155.93470703 70.23681641 155.57910156 C55.73838287 148.15026744 40.42832453 142.7415834 24.5 139.3125 C23.81760254 139.16522461 23.13520508 139.01794922 22.43212891 138.86621094 C8.69223513 136.14310365 -5.08796618 135.24392751 -19.0625 135.3125 C-20.20196075 135.31473572 -20.20196075 135.31473572 -21.36444092 135.3170166 C-33.38905923 135.35925359 -44.96454915 136.09279008 -56.75 138.625 C-57.47203613 138.76953613 -58.19407227 138.91407227 -58.93798828 139.06298828 C-85.40501749 144.3894263 -109.96136774 155.76550371 -131.75 171.625 C-132.35038086 172.05184082 -132.95076172 172.47868164 -133.56933594 172.91845703 C-150.86506651 185.29410218 -165.64244689 201.21331005 -177.75 218.625 C-178.16926758 219.22618652 -178.58853516 219.82737305 -179.02050781 220.44677734 C-192.67060125 240.28086048 -202.27597762 262.18033834 -207.75 285.625 C-208.74 285.295 -209.73 284.965 -210.75 284.625 C-210.2437104 277.41852525 -209.28492431 270.52883461 -207.625 263.5 C-207.3000354 262.10261597 -207.3000354 262.10261597 -206.96850586 260.67700195 C-202.86546391 243.38059494 -198.1221672 226.2307914 -191.75 209.625 C-191.45512695 208.85414063 -191.16025391 208.08328125 -190.85644531 207.2890625 C-167.07141586 145.57122442 -130.55861645 87.69280992 -80.75 43.625 C-79.93329834 42.89120117 -79.93329834 42.89120117 -79.10009766 42.14257812 C-64.41156278 28.96616131 -48.17405867 18.15615075 -31.19677734 8.14306641 C-28.73737786 6.67489767 -28.73737786 6.67489767 -26.55712891 4.93115234 C-18.38998771 -1.02027533 -9.6748496 -0.21281147 0 0 Z " fill="#0D2D3C" transform="translate(1277.75,690.375)"/>
<path d="M0 0 C0.99 0.33 1.98 0.66 3 1 C2.45606848 4.58500317 1.6567788 6.85033073 -0.5 9.75 C-12.51635807 27.22833901 -20.19769415 47.43222957 -25 68 C-25.99 67.67 -26.98 67.34 -28 67 C-27.49369992 59.79337614 -26.5342164 52.90409195 -24.875 45.875 C-24.66125732 44.95211182 -24.44751465 44.02922363 -24.22729492 43.07836914 C-17.61244842 15.11401804 -17.61244842 15.11401804 -13 4 C-11.35 4 -9.7 4 -8 4 C-7.67 5.98 -7.34 7.96 -7 10 C-6.34 9.67 -5.68 9.34 -5 9 C-4.67 9.99 -4.34 10.98 -4 12 C-4.12375 10.14375 -4.12375 10.14375 -4.25 8.25 C-4.2737948 4.89493302 -4.19641677 4.24552096 -2 1.5 C-1.34 1.005 -0.68 0.51 0 0 Z " fill="#0C2E3E" transform="translate(1095,908)"/>
<path d="M0 0 C99.99 0 199.98 0 303 0 C303 0.33 303 0.66 303 1 C302.05269635 1.00203479 302.05269635 1.00203479 301.08625525 1.00411069 C263.68437018 1.08470164 226.28252359 1.17563183 188.88069717 1.28005161 C184.39320262 1.29257099 179.90570783 1.30500368 175.41821289 1.31738281 C174.07810256 1.3210818 174.07810256 1.3210818 172.7109193 1.32485552 C158.23117022 1.36461584 143.75141331 1.39734867 129.2716414 1.42749982 C114.42211034 1.45857676 99.57261265 1.49716994 84.72311908 1.54279006 C75.55481914 1.5707182 66.3865437 1.59273241 57.21821258 1.60726251 C50.93735959 1.61777722 44.65655393 1.63557035 38.37573656 1.65916704 C34.7480991 1.67257843 31.1205282 1.68270409 27.49286461 1.68421364 C23.56583138 1.6859313 19.63895147 1.70293628 15.71195984 1.7215271 C14.55730482 1.71959237 13.40264981 1.71765763 12.21300524 1.71566427 C10.64174261 1.72686251 10.64174261 1.72686251 9.0387373 1.73828697 C7.67800949 1.74170446 7.67800949 1.74170446 6.28979224 1.74519098 C3.7222584 1.85346291 3.7222584 1.85346291 1 4 C0.01 4.33 -0.98 4.66 -2 5 C-1.34 3.35 -0.68 1.7 0 0 Z " fill="#588696" transform="translate(956,691)"/>
<path d="M0 0 C51.15 0 102.3 0 155 0 C155 0.99 155 1.98 155 3 C146.75 3 138.5 3 130 3 C130 2.34 130 1.68 130 1 C87.1 1 44.2 1 0 1 C0 0.67 0 0.34 0 0 Z " fill="#142830" transform="translate(547,691)"/>
<path d="M0 0 C2.81256281 -0.02684312 5.62487241 -0.04676188 8.4375 -0.0625 C9.23994141 -0.07087891 10.04238281 -0.07925781 10.86914062 -0.08789062 C12.91295221 -0.0965143 14.95683902 -0.0522815 17 0 C17.33 0.33 17.66 0.66 18 1 C20.34987262 1.23527773 22.70556039 1.41386417 25.0625 1.5625 C26.35285156 1.64628906 27.64320312 1.73007813 28.97265625 1.81640625 C30.47119141 1.90728516 30.47119141 1.90728516 32 2 C32 2.66 32 3.32 32 4 C33.32 4 34.64 4 36 4 C36 4.66 36 5.32 36 6 C36.84304688 5.97679687 37.68609375 5.95359375 38.5546875 5.9296875 C40.19824219 5.90261719 40.19824219 5.90261719 41.875 5.875 C43.51082031 5.84019531 43.51082031 5.84019531 45.1796875 5.8046875 C48 6 48 6 50 8 C33.03460819 8.61692334 16.45589643 4.63654739 0 1 C0 0.67 0 0.34 0 0 Z " fill="#5A9DBB" transform="translate(1181,1348)"/>
<path d="M0 0 C0.309375 0.639375 0.61875 1.27875 0.9375 1.9375 C1.8345163 3.93610821 1.8345163 3.93610821 3 5 C2.78928444 10.91960226 1.76257622 16.83584241 0.89575195 22.68896484 C-0.78892858 34.12317533 -1.63680909 45.45303395 -2 57 C-2.33 57 -2.66 57 -3 57 C-3.29503696 14.52375516 -3.29503696 14.52375516 0 0 Z " fill="#2F779A" transform="translate(1066,971)"/>
<path d="M0 0 C1.79234788 2.68852182 2.62887459 4.58116195 3.5859375 7.60546875 C3.87726563 8.50716797 4.16859375 9.40886719 4.46875 10.33789062 C5.06655834 12.21763711 5.66294414 14.09783668 6.2578125 15.97851562 C7.67392568 20.35418114 9.1468355 24.47355042 11.2890625 28.55078125 C11.85367187 29.68902344 12.41828125 30.82726563 13 32 C12.67 32.66 12.34 33.32 12 34 C10.02 33.34 8.04 32.68 6 32 C6.33 29.36 6.66 26.72 7 24 C6.01 24 5.02 24 4 24 C3.32698711 20.75128084 2.6627049 17.50083621 2 14.25 C1.80921875 13.32960938 1.6184375 12.40921875 1.421875 11.4609375 C1.24140625 10.57148437 1.0609375 9.68203125 0.875 8.765625 C0.70742187 7.94868164 0.53984375 7.13173828 0.3671875 6.29003906 C0 4 0 4 0 0 Z " fill="#3889AF" transform="translate(1071,1072)"/>
<path d="M0 0 C1.07174763 3.65188082 0.76411467 6.26432828 0 10 C0.99 10 1.98 10 3 10 C1.33333333 16.66666667 -0.33333333 23.33333333 -2 30 C-2.99 29.67 -3.98 29.34 -5 29 C-4.56279178 19.0753735 -2.27718577 9.6277296 0 0 Z " fill="#13445E" transform="translate(1072,946)"/>
<path d="M0 0 C2.125 0.375 2.125 0.375 4 1 C4 1.66 4 2.32 4 3 C4.556875 3.20625 5.11375 3.4125 5.6875 3.625 C8.97012371 5.57683032 10.70673246 7.94230994 13 11 C13 13.15634036 12.5534764 14.92446352 12 17 C11.34 16.01 10.68 15.02 10 14 C9.01 14.495 9.01 14.495 8 15 C8 14.34 8 13.68 8 13 C7.34 12.67 6.68 12.34 6 12 C6.66 11.34 7.32 10.68 8 10 C7.16855469 9.76216797 7.16855469 9.76216797 6.3203125 9.51953125 C0.32933105 7.59005146 0.32933105 7.59005146 -1.5 4.3125 C-1.665 3.549375 -1.83 2.78625 -2 2 C-1.34 1.34 -0.68 0.68 0 0 Z " fill="#1B80B5" transform="translate(1479,1223)"/>
<path d="M0 0 C0.33 0 0.66 0 1 0 C1.02505615 0.68288086 1.0501123 1.36576172 1.07592773 2.06933594 C1.61700065 16.71879321 2.2234424 31.36106308 3 46 C2.34 46 1.68 46 1 46 C0.93941406 44.87980469 0.87882812 43.75960938 0.81640625 42.60546875 C0.73198576 41.13280016 0.64733851 39.66014456 0.5625 38.1875 C0.52318359 37.44951172 0.48386719 36.71152344 0.44335938 35.95117188 C0.25618965 32.76928658 0.01279207 30.03837622 -1 27 C-1.09267799 25.4435344 -1.13068304 23.88343966 -1.1328125 22.32421875 C-1.13410156 21.41349609 -1.13539062 20.50277344 -1.13671875 19.56445312 C-1.13285156 18.61505859 -1.12898438 17.66566406 -1.125 16.6875 C-1.12886719 15.74970703 -1.13273437 14.81191406 -1.13671875 13.84570312 C-1.13005518 9.11790095 -0.98111446 4.64861373 0 0 Z " fill="#1276AB" transform="translate(1062,1002)"/>
<path d="M0 0 C0.33 0 0.66 0 1 0 C1.02187378 1.09948975 1.02187378 1.09948975 1.04418945 2.22119141 C1.36749289 16.86923607 2.11340274 31.2006034 4.37890625 45.68359375 C4.86650797 48.82390937 5.15053985 51.81248237 5 55 C3 54 3 54 1.9140625 51.3359375 C-2.45425297 35.39345285 -0.09728235 16.45119295 0 0 Z " fill="#6EABC9" transform="translate(1064,1008)"/>
<path d="M0 0 C-0.33 0.66 -0.66 1.32 -1 2 C-3.58203125 2.37890625 -3.58203125 2.37890625 -6.8125 2.5625 C-10.80457568 2.72865345 -10.80457568 2.72865345 -14.6965332 3.50488281 C-18.06038495 4.22792376 -21.41114266 4.16272 -24.8359375 4.16796875 C-25.97139511 4.17296135 -25.97139511 4.17296135 -27.12979126 4.17805481 C-28.72844843 4.18310805 -30.3271161 4.18546363 -31.92578125 4.18530273 C-34.3595537 4.18748614 -36.79287035 4.20565002 -39.2265625 4.22460938 C-40.78385263 4.22754433 -42.34114489 4.22952844 -43.8984375 4.23046875 C-44.62050385 4.23765427 -45.34257019 4.24483978 -46.08651733 4.25224304 C-50.43604143 4.2327746 -53.95630074 3.59823907 -58 2 C-58 1.67 -58 1.34 -58 1 C-56.69853027 1.00523682 -55.39706055 1.01047363 -54.05615234 1.01586914 C-49.2143625 1.03400838 -44.37257565 1.04546462 -39.53076172 1.05493164 C-37.43765762 1.05995146 -35.34455701 1.06676868 -33.25146484 1.07543945 C-30.23794695 1.08760805 -27.22447554 1.09325191 -24.2109375 1.09765625 C-22.81371964 1.10539818 -22.81371964 1.10539818 -21.38827515 1.11329651 C-14.16737755 1.11391596 -7.22092014 -0.12449862 0 0 Z " fill="#77B6D0" transform="translate(1293,1214)"/>
<path d="M0 0 C0.66 0 1.32 0 2 0 C0.34845026 6.27588901 -2.2452407 11.46947898 -5.5625 17 C-5.96267334 17.6710376 -6.36284668 18.3420752 -6.77514648 19.03344727 C-9.73654743 23.86827371 -9.73654743 23.86827371 -12 25 C-11.67 23.35 -11.34 21.7 -11 20 C-10.34 20 -9.68 20 -9 20 C-8.7834375 18.081875 -8.7834375 18.081875 -8.5625 16.125 C-8.29357254 13.74307106 -8.07773654 12.15547309 -7 10 C-6.34 10 -5.68 10 -5 10 C-5.33 8.68 -5.66 7.36 -6 6 C-4.68 6 -3.36 6 -2 6 C-1.34 4.02 -0.68 2.04 0 0 Z " fill="#408DB4" transform="translate(937,1266)"/>
<path d="M0 0 C2.03833424 1.2739589 4.03852126 2.61061923 6 4 C6 4.66 6 5.32 6 6 C6.66 6 7.32 6 8 6 C8 6.66 8 7.32 8 8 C8.66 8 9.32 8 10 8 C10 8.66 10 9.32 10 10 C10.58523438 10.25652344 11.17046875 10.51304688 11.7734375 10.77734375 C14.19234608 12.10562162 15.73198872 13.56524801 17.625 15.5625 C20.04521959 18.14015389 20.04521959 18.14015389 23 20 C22.67 20.66 22.34 21.32 22 22 C21.34 22 20.68 22 20 22 C20 21.34 20 20.68 20 20 C19.01 20 18.02 20 17 20 C16.67 18.68 16.34 17.36 16 16 C14.68 16 13.36 16 12 16 C11 14 10 12 9 10 C8.34 10 7.68 10 7 10 C7 9.34 7 8.68 7 8 C6.21625 7.71125 5.4325 7.4225 4.625 7.125 C2 6 2 6 0 4 C0 2.68 0 1.36 0 0 Z " fill="#5B9EBB" transform="translate(1410,1158)"/>
<path d="M0 0 C1.99954746 -0.04254356 4.00041636 -0.04080783 6 0 C6.33 0.33 6.66 0.66 7 1 C9.03005482 1 11.06064427 0.99642412 13.08984375 0.9375 C15 1 15 1 17 2 C16.67 3.32 16.34 4.64 16 6 C18.31 6 20.62 6 23 6 C23 6.66 23 7.32 23 8 C24.32 8.66 25.64 9.32 27 10 C21.28257757 9.30784107 16.09030664 7.46413302 10.6875 5.5625 C9.76904297 5.24990234 8.85058594 4.93730469 7.90429688 4.61523438 C7.03224609 4.31037109 6.16019531 4.00550781 5.26171875 3.69140625 C4.46725342 3.41498291 3.67278809 3.13855957 2.85424805 2.85375977 C1 2 1 2 0 0 Z " fill="#2D85B1" transform="translate(1124,1330)"/>
<path d="M0 0 C2.31 1.98 4.62 3.96 7 6 C4.12505529 9.98069267 1.17882671 12.43571997 -3 15 C-4.23176506 11.30470481 -3.58605288 10.42063941 -2.0625 6.9375 C-0.50040923 3.58075678 -0.50040923 3.58075678 0 0 Z " fill="#334A51" transform="translate(1500,784)"/>
<path d="M0 0 C7.92 0 15.84 0 24 0 C21.06691132 2.93308868 17.57173204 3.02206262 13.625 3.6875 C12.47257813 3.90116211 12.47257813 3.90116211 11.296875 4.11914062 C10.17925781 4.3134668 10.17925781 4.3134668 9.0390625 4.51171875 C8.02126709 4.68900513 8.02126709 4.68900513 6.98291016 4.86987305 C4.78278058 5.01425486 3.09944556 4.63734216 1 4 C1.99 4 2.98 4 4 4 C4 3.34 4 2.68 4 2 C2.68 2 1.36 2 0 2 C0 1.34 0 0.68 0 0 Z " fill="#4898BD" transform="translate(817,1350)"/>
<path d="M0 0 C0.66 0 1.32 0 2 0 C1.21302675 3.41021743 0.12880057 6.68885166 -1 10 C-1.66 10 -2.32 10 -3 10 C-2.896875 10.845625 -2.79375 11.69125 -2.6875 12.5625 C-3.06027551 16.66303062 -4.3487966 18.178555 -6.8203125 21.3203125 C-8.32558126 23.46357597 -8.76463352 25.41096869 -9 28 C-9.99 28.33 -10.98 28.66 -12 29 C-9.91932667 22.23703646 -7.26750264 15.86121387 -4.3125 9.4375 C-3.89677734 8.52419922 -3.48105469 7.61089844 -3.05273438 6.66992188 C-2.03917098 4.44474248 -1.02154784 2.22152219 0 0 Z " fill="#04334E" transform="translate(1103,860)"/>
<path d="M0 0 C1.65 0 3.3 0 5 0 C0.2347969 4.9240432 -4.88657333 9.44259642 -10 14 C-10.33 13.34 -10.66 12.68 -11 12 C-11.66 11.67 -12.32 11.34 -13 11 C-11.35 10.67 -9.7 10.34 -8 10 C-8.061875 9.05125 -8.12375 8.1025 -8.1875 7.125 C-8.125625 6.09375 -8.06375 5.0625 -8 4 C-5 2 -5 2 -2.8125 2.375 C-2.214375 2.58125 -1.61625 2.7875 -1 3 C-0.67 2.01 -0.34 1.02 0 0 Z " fill="#29424C" transform="translate(1137,864)"/>
<path d="M0 0 C6.27 0 12.54 0 19 0 C15.65836994 2.22775337 12.45287175 3.12738864 8.625 4.125 C7.635 4.39763672 7.635 4.39763672 6.625 4.67578125 C3.00469039 5.63494694 -0.25410979 6.21694345 -4 6 C-3.67 5.34 -3.34 4.68 -3 4 C-0.9375 3.375 -0.9375 3.375 1 3 C0.67 2.01 0.34 1.02 0 0 Z " fill="#529CBF" transform="translate(1336,1344)"/>
<path d="M0 0 C1.32 0 2.64 0 4 0 C2.43930994 3.83078469 -0.06814114 6.14143762 -3 9 C-3.99 10.485 -3.99 10.485 -5 12 C-5.66 12 -6.32 12 -7 12 C-7 12.66 -7 13.32 -7 14 C-7.66 14 -8.32 14 -9 14 C-9 14.66 -9 15.32 -9 16 C-9.66 15.67 -10.32 15.34 -11 15 C-10.67 14.34 -10.34 13.68 -10 13 C-10.66 13 -11.32 13 -12 13 C-11.34 11.02 -10.68 9.04 -10 7 C-9.67 7.66 -9.34 8.32 -9 9 C-7.35 8.67 -5.7 8.34 -4 8 C-4 7.34 -4 6.68 -4 6 C-3.34 6 -2.68 6 -2 6 C-1.34 4.02 -0.68 2.04 0 0 Z " fill="#358EBE" transform="translate(914,1300)"/>
<path d="M0 0 C2 0 2 0 4.125 1.875 C6 4 6 4 6 6 C6.66 6 7.32 6 8 6 C8 6.66 8 7.32 8 8 C8.66 8 9.32 8 10 8 C10 8.66 10 9.32 10 10 C12.475 10.99 12.475 10.99 15 12 C15 12.66 15 13.32 15 14 C15.99 14.33 16.98 14.66 18 15 C16.68 15.33 15.36 15.66 14 16 C14 15.34 14 14.68 14 14 C12.5459375 14.0309375 12.5459375 14.0309375 11.0625 14.0625 C8 14 8 14 7 13 C6.95936168 11.33382885 6.957279 9.66611905 7 8 C6.34 8 5.68 8 5 8 C5 7.34 5 6.68 5 6 C4.360625 5.7525 3.72125 5.505 3.0625 5.25 C1 4 1 4 0.25 1.875 C0.1675 1.25625 0.085 0.6375 0 0 Z " fill="#3E8FB2" transform="translate(1120,1158)"/>
<path d="M0 0 C0.33 0 0.66 0 1 0 C1.09765625 6.15234375 1.09765625 6.15234375 1 8 C0.67 8.33 0.34 8.66 0 9 C-0.2028816 10.48773622 -0.3470373 11.98359146 -0.46484375 13.48046875 C-0.54283203 14.39763672 -0.62082031 15.31480469 -0.70117188 16.25976562 C-0.85713242 18.19187184 -1.0108262 20.12416255 -1.16210938 22.05664062 C-1.58539888 26.98813543 -2.13582086 31.35905192 -4 36 C-4.33 36 -4.66 36 -5 36 C-4.48743678 23.85755411 -3.16340036 11.77149941 0 0 Z " fill="#1F78A6" transform="translate(814,944)"/>
<path d="M0 0 C0.66 0.33 1.32 0.66 2 1 C1.67 1.99 1.34 2.98 1 4 C0.01 4 -0.98 4 -2 4 C-2.33 5.32 -2.66 6.64 -3 8 C-4.65 8 -6.3 8 -8 8 C-8 8.66 -8 9.32 -8 10 C-8.66 10 -9.32 10 -10 10 C-10 10.99 -10 11.98 -10 13 C-12.31 13.33 -14.62 13.66 -17 14 C-15.71034824 12.62437146 -14.37310707 11.29233607 -13 10 C-12.34 10 -11.68 10 -11 10 C-11 9.34 -11 8.68 -11 8 C-5.58823529 4 -5.58823529 4 -3 4 C-3 3.34 -3 2.68 -3 2 C-2.01 1.34 -1.02 0.68 0 0 Z " fill="#569EBD" transform="translate(1383,1172)"/>
<path d="M0 0 C0.66 0 1.32 0 2 0 C2.33 1.65 2.66 3.3 3 5 C4.98 4.67 6.96 4.34 9 4 C9.33 7.3 9.66 10.6 10 14 C5.60405194 11.80202597 4.72380653 10.46629541 2.25 6.375 C1.63640625 5.37210938 1.0228125 4.36921875 0.390625 3.3359375 C-0.06828125 2.56507812 -0.5271875 1.79421875 -1 1 C-0.67 0.67 -0.34 0.34 0 0 Z " fill="#152C3A" transform="translate(797,1096)"/>
<path d="M0 0 C1.65 0 3.3 0 5 0 C4.06409496 1.1055189 3.12620142 2.20935453 2.1875 3.3125 C1.40439453 4.23482422 1.40439453 4.23482422 0.60546875 5.17578125 C-2.3373102 8.51952278 -2.3373102 8.51952278 -4 10 C-4.66 10 -5.32 10 -6 10 C-6 10.66 -6 11.32 -6 12 C-6.66 12 -7.32 12 -8 12 C-8 12.66 -8 13.32 -8 14 C-8.66 13.67 -9.32 13.34 -10 13 C-9.34 11.35 -8.68 9.7 -8 8 C-7.34 8 -6.68 8 -6 8 C-6 7.34 -6 6.68 -6 6 C-4.68 6 -3.36 6 -2 6 C-2 4.68 -2 3.36 -2 2 C-1.34 2 -0.68 2 0 2 C0 1.34 0 0.68 0 0 Z " fill="#5198BA" transform="translate(1496,1258)"/>
<path d="M0 0 C0.99 0.33 1.98 0.66 3 1 C2.44010697 4.99012371 1.24330232 7.5255052 -1.0625 10.8125 C-1.88427734 11.99779297 -1.88427734 11.99779297 -2.72265625 13.20703125 C-3.35494141 14.09455078 -3.35494141 14.09455078 -4 15 C-4.66 14.01 -5.32 13.02 -6 12 C-5.34 12 -4.68 12 -4 12 C-4.12375 10.14375 -4.12375 10.14375 -4.25 8.25 C-4.2737948 4.89493302 -4.19641677 4.24552096 -2 1.5 C-1.34 1.005 -0.68 0.51 0 0 Z " fill="#283E45" transform="translate(1095,908)"/>
<path d="M0 0 C5.96652354 1.57013777 10.82909025 4.75029782 16 8 C15.34 8.66 14.68 9.32 14 10 C14 9.34 14 8.68 14 8 C12.741875 8.061875 11.48375 8.12375 10.1875 8.1875 C6.27394757 8.1944144 6.27394757 8.1944144 4.0625 6.625 C3 5 3 5 2 3 C1.01 3.495 1.01 3.495 0 4 C-0.33 3.01 -0.66 2.02 -1 1 C-0.67 0.67 -0.34 0.34 0 0 Z M4 3 C5 5 5 5 5 5 Z " fill="#3D5458" transform="translate(1419,726)"/>
<path d="M0 0 C0.67095703 0.58007812 0.67095703 0.58007812 1.35546875 1.171875 C1.96003906 1.69265625 2.56460937 2.2134375 3.1875 2.75 C3.82171875 3.2965625 4.4559375 3.843125 5.109375 4.40625 C6.68220486 5.73210658 8.30440766 6.99912076 9.9375 8.25 C10.618125 8.8275 11.29875 9.405 12 10 C12 10.66 12 11.32 12 12 C12.99 12.33 13.98 12.66 15 13 C15 13.33 15 13.66 15 14 C13.02 14 11.04 14 9 14 C9 12.68 9 11.36 9 10 C8.38125 9.7525 7.7625 9.505 7.125 9.25 C4.64931313 7.79371361 4.04874998 6.62187494 3 4 C2.01 4 1.02 4 0 4 C0 2.68 0 1.36 0 0 Z " fill="#5196B8" transform="translate(1449,1194)"/>
<path d="M0 0 C2.64 0 5.28 0 8 0 C8 0.33 8 0.66 8 1 C10.64 1.33 13.28 1.66 16 2 C16 2.99 16 3.98 16 5 C14.27014758 4.88487847 12.54111249 4.75744323 10.8125 4.625 C9.84957031 4.55539062 8.88664062 4.48578125 7.89453125 4.4140625 C4.98491062 3.99784147 2.67109226 3.20125904 0 2 C0 1.34 0 0.68 0 0 Z " fill="#287FAF" transform="translate(1173,1344)"/>
<path d="M0 0 C1.62463842 -0.05395478 3.24978541 -0.09277195 4.875 -0.125 C5.77992187 -0.14820313 6.68484375 -0.17140625 7.6171875 -0.1953125 C10 0 10 0 12 2 C11.34 2 10.68 2 10 2 C10 2.66 10 3.32 10 4 C10.66 4 11.32 4 12 4 C12.66 5.32 13.32 6.64 14 8 C8.76481294 6.56032356 4.36973991 4.18303389 0 1 C0 0.67 0 0.34 0 0 Z " fill="#4E9BBF" transform="translate(1092,1314)"/>
<path d="M0 0 C4.25209792 4.12324647 8.13635705 8.51282966 12 13 C10.125 13.625 10.125 13.625 8 14 C7.34 13.34 6.68 12.68 6 12 C6 11.01 6 10.02 6 9 C3.525 8.01 3.525 8.01 1 7 C0.67 4.69 0.34 2.38 0 0 Z " fill="#4492B2" transform="translate(1103,1138)"/>
<path d="M0 0 C0.99 0.66 1.98 1.32 3 2 C1.38113585 3.67262717 -0.2452729 5.33795537 -1.875 7 C-3.23238281 8.3921875 -3.23238281 8.3921875 -4.6171875 9.8125 C-7 12 -7 12 -9 12 C-8.67 10.35 -8.34 8.7 -8 7 C-7.01 7 -6.02 7 -5 7 C-5.33 6.01 -5.66 5.02 -6 4 C-4.35 3.67 -2.7 3.34 -1 3 C-0.67 2.01 -0.34 1.02 0 0 Z " fill="#40535B" transform="translate(1435,852)"/>
<path d="M0 0 C0.66 0 1.32 0 2 0 C2 0.66 2 1.32 2 2 C3.98 2 5.96 2 8 2 C5.2158421 3.85610526 2.52389217 5.26903445 -0.5 6.6875 C-1.4590625 7.14511719 -2.418125 7.60273437 -3.40625 8.07421875 C-6 9 -6 9 -9 8 C-9 7.34 -9 6.68 -9 6 C-8.05125 5.71125 -7.1025 5.4225 -6.125 5.125 C-2.79583121 3.92649924 -1.57255549 3.14511099 0 0 Z " fill="#3A4D55" transform="translate(1184,834)"/>
<path d="M0 0 C0.66 0.99 1.32 1.98 2 3 C2.99 3 3.98 3 5 3 C2.375 7.875 2.375 7.875 -1 9 C-1.66 8.67 -2.32 8.34 -3 8 C-3.33 9.32 -3.66 10.64 -4 12 C-4.66 12 -5.32 12 -6 12 C-4.43358249 7.69235185 -2.31663844 3.93828536 0 0 Z " fill="#3990BD" transform="translate(906,772)"/>
<path d="M0 0 C3.27152729 0.97261622 4.74545129 1.65767587 6.8125 4.4375 C8 7 8 7 8 10 C6.35 10 4.7 10 3 10 C3 8.02 3 6.04 3 4 C1.68 4 0.36 4 -1 4 C-0.67 2.68 -0.34 1.36 0 0 Z " fill="#1F3940" transform="translate(716,716)"/>
<path d="M0 0 C1.15242188 0.00902344 2.30484375 0.01804687 3.4921875 0.02734375 C4.36101562 0.03894531 5.22984375 0.05054688 6.125 0.0625 C2.87204891 2.75233519 0.13640606 4.68716078 -3.875 6.0625 C-3.545 4.7425 -3.215 3.4225 -2.875 2.0625 C-6.175 2.0625 -9.475 2.0625 -12.875 2.0625 C-12.875 1.7325 -12.875 1.4025 -12.875 1.0625 C-8.52167264 0.22226812 -4.43057481 -0.04520995 0 0 Z " fill="#1F7FB3" transform="translate(1251.875,691.9375)"/>
<path d="M0 0 C2.97 0 5.94 0 9 0 C9.33 0.99 9.66 1.98 10 3 C6.68929162 4.00109515 3.69915231 4.10356134 0.25 4.0625 C-0.73484375 4.05347656 -1.7196875 4.04445313 -2.734375 4.03515625 C-3.48203125 4.02355469 -4.2296875 4.01195312 -5 4 C-2 2 -2 2 0 2 C0 1.34 0 0.68 0 0 Z " fill="#4894B7" transform="translate(1308,1350)"/>
<path d="M0 0 C2.64 0.33 5.28 0.66 8 1 C5.1237651 3.3223428 2.36219578 4.86565842 -1.0625 6.25 C-1.91972656 6.60578125 -2.77695313 6.9615625 -3.66015625 7.328125 C-6 8 -6 8 -9 7 C-7.68 6.67 -6.36 6.34 -5 6 C-5 5.34 -5 4.68 -5 4 C-4.360625 3.896875 -3.72125 3.79375 -3.0625 3.6875 C-2.381875 3.460625 -1.70125 3.23375 -1 3 C-0.67 2.01 -0.34 1.02 0 0 Z " fill="#60A4C3" transform="translate(1403,1322)"/>
<path d="M0 0 C0.99 0 1.98 0 3 0 C3.66 0.66 4.32 1.32 5 2 C5.66 2 6.32 2 7 2 C7.144375 2.9075 7.28875 3.815 7.4375 4.75 C7.86409473 7.21476956 8.35074221 9.58847107 9 12 C8.34 12 7.68 12 7 12 C7 11.34 7 10.68 7 10 C6.34 10 5.68 10 5 10 C4.67 8.68 4.34 7.36 4 6 C3.34 6 2.68 6 2 6 C1.34 4.02 0.68 2.04 0 0 Z " fill="#4794B9" transform="translate(982,1216)"/>
<path d="M0 0 C2.91387197 0.2913872 3.82565583 0.79452294 5.75 3.0625 C6.36875 4.0215625 6.36875 4.0215625 7 5 C5.68 5 4.36 5 3 5 C3 4.34 3 3.68 3 3 C1.02463255 3.34786708 1.02463255 3.34786708 -1 4 C-1.33 4.66 -1.66 5.32 -2 6 C-2.66 6 -3.32 6 -4 6 C-4 6.99 -4 7.98 -4 9 C-4.66 9 -5.32 9 -6 9 C-6 9.66 -6 10.32 -6 11 C-6.99 11 -7.98 11 -9 11 C-9 10.34 -9 9.68 -9 9 C-8.34 9 -7.68 9 -7 9 C-7 8.34 -7 7.68 -7 7 C-6.34 7 -5.68 7 -5 7 C-5 6.34 -5 5.68 -5 5 C-4.34 5 -3.68 5 -3 5 C-2.690625 4.360625 -2.38125 3.72125 -2.0625 3.0625 C-1 1 -1 1 0 0 Z " fill="#6BA7C1" transform="translate(1403,1153)"/>
<path d="M0 0 C0.33 0.66 0.66 1.32 1 2 C1.66 2 2.32 2 3 2 C3 2.66 3 3.32 3 4 C3.99 3.67 4.98 3.34 6 3 C6 3.99 6 4.98 6 6 C6.66 6 7.32 6 8 6 C8.33 7.65 8.66 9.3 9 11 C8.34 11 7.68 11 7 11 C6.67 11.66 6.34 12.32 6 13 C4.99193149 11.40089132 3.99379615 9.79551738 3 8.1875 C2.443125 7.29417969 1.88625 6.40085937 1.3125 5.48046875 C0 3 0 3 0 0 Z " fill="#20343C" transform="translate(690,926)"/>
<path d="M0 0 C2.78576391 2.53642084 4.71423062 5.40369256 6.75 8.5625 C7.38421875 9.53316406 8.0184375 10.50382813 8.671875 11.50390625 C9.11015625 12.32761719 9.5484375 13.15132812 10 14 C9.67 14.66 9.34 15.32 9 16 C7.68 14.68 6.36 13.36 5 12 C5.33 11.34 5.66 10.68 6 10 C5.0409375 9.8453125 5.0409375 9.8453125 4.0625 9.6875 C3.381875 9.460625 2.70125 9.23375 2 9 C1.67 8.01 1.34 7.02 1 6 C0.34 5.67 -0.32 5.34 -1 5 C-0.67 3.35 -0.34 1.7 0 0 Z " fill="#3A5055" transform="translate(726,728)"/>
<path d="M0 0 C10.52670777 -0.30028643 20.58696894 0.58806359 31 2 C31 2.33 31 2.66 31 3 C28.36 3 25.72 3 23 3 C22.67 3.66 22.34 4.32 22 5 C22 4.01 22 3.02 22 2 C16.06 2.495 16.06 2.495 10 3 C10 2.67 10 2.34 10 2 C6.7 1.67 3.4 1.34 0 1 C0 0.67 0 0.34 0 0 Z " fill="#6C7A80" transform="translate(1285,691)"/>
<path d="M0 0 C0.99 0.33 1.98 0.66 3 1 C2.360625 1.598125 1.72125 2.19625 1.0625 2.8125 C-1.20310389 4.90810337 -1.20310389 4.90810337 -2 8 C-2.99 8 -3.98 8 -5 8 C-5.66 9.32 -6.32 10.64 -7 12 C-7.99 11.67 -8.98 11.34 -10 11 C-6.7 7.37 -3.4 3.74 0 0 Z " fill="#042F45" transform="translate(1171,760)"/>
<path d="M0 0 C1.65 0 3.3 0 5 0 C5 0.66 5 1.32 5 2 C6.98 2 8.96 2 11 2 C11 2.66 11 3.32 11 4 C12.32 4 13.64 4 15 4 C15.33 5.32 15.66 6.64 16 8 C10.04675579 6.60668753 5.24258516 4.11464243 0 1 C0 0.67 0 0.34 0 0 Z " fill="#61A4C0" transform="translate(1107,1322)"/>
<path d="M0 0 C3.96 0.33 7.92 0.66 12 1 C12 1.33 12 1.66 12 2 C8.75198175 2.53373082 5.50138509 3.04971268 2.25 3.5625 C1.32960938 3.71396484 0.40921875 3.86542969 -0.5390625 4.02148438 C-1.87324219 4.2293457 -1.87324219 4.2293457 -3.234375 4.44140625 C-4.45979004 4.63778687 -4.45979004 4.63778687 -5.70996094 4.83813477 C-8.06110207 5.00431883 -9.76426496 4.70259545 -12 4 C-11.67 3.34 -11.34 2.68 -11 2 C-9.8553125 2.0309375 -9.8553125 2.0309375 -8.6875 2.0625 C-5.89814214 2.12942841 -5.89814214 2.12942841 -3 1 C-2.01 1.33 -1.02 1.66 0 2 C0 1.34 0 0.68 0 0 Z " fill="#5D6F73" transform="translate(1229,824)"/>
<path d="M0 0 C-0.56959153 3.62613199 -1.92374534 5.25517741 -4.5625 7.75 C-5.52349609 8.67039062 -5.52349609 8.67039062 -6.50390625 9.609375 C-6.99761719 10.06828125 -7.49132813 10.5271875 -8 11 C-8.66 9.68 -9.32 8.36 -10 7 C-9.34 7 -8.68 7 -8 7 C-8 6.34 -8 5.68 -8 5 C-7.01 5 -6.02 5 -5 5 C-5 4.01 -5 3.02 -5 2 C-2 0 -2 0 0 0 Z " fill="#40575C" transform="translate(1125,877)"/>
<path d="M0 0 C3.4087928 1.3984791 4.87393835 2.85006933 6.75 6 C7.17796875 6.70125 7.6059375 7.4025 8.046875 8.125 C9 10 9 10 9 12 C8.01 12.33 7.02 12.66 6 13 C5.566875 12.0925 5.13375 11.185 4.6875 10.25 C3.16060591 7.07459389 3.16060591 7.07459389 1.3125 4.8125 C0 3 0 3 0 0 Z " fill="#263E41" transform="translate(750,768)"/>
<path d="M0 0 C1.65 0 3.3 0 5 0 C5 0.66 5 1.32 5 2 C7.31 2 9.62 2 12 2 C12 2.66 12 3.32 12 4 C11.34 4 10.68 4 10 4 C10.66 5.32 11.32 6.64 12 8 C7.44328408 6.48109469 3.68276708 4.04597738 0 1 C0 0.67 0 0.34 0 0 Z " fill="#4F9ABB" transform="translate(1060,1294)"/>
<path d="M0 0 C0.66 0 1.32 0 2 0 C0.59155282 3.21524305 -1.10344786 5.32183868 -3.625 7.75 C-4.57246094 8.67039062 -4.57246094 8.67039062 -5.5390625 9.609375 C-6.02117187 10.06828125 -6.50328125 10.5271875 -7 11 C-7.66 9.68 -8.32 8.36 -9 7 C-8.34 6.34 -7.68 5.68 -7 5 C-6.01 5 -5.02 5 -4 5 C-3.67 4.01 -3.34 3.02 -3 2 C-2.01 2 -1.02 2 0 2 C0 1.34 0 0.68 0 0 Z " fill="#45575E" transform="translate(1413,874)"/>
<path d="M0 0 C3 1.8125 3 1.8125 6 4 C6 4.99 6 5.98 6 7 C4.03814584 8.71140469 2.03697617 10.37873325 0 12 C-0.33 12.66 -0.66 13.32 -1 14 C-1.66 13.67 -2.32 13.34 -3 13 C-2.67 12.01 -2.34 11.02 -2 10 C-1.34 10 -0.68 10 0 10 C0 9.34 0 8.68 0 8 C0.66 8 1.32 8 2 8 C1.67 7.4225 1.34 6.845 1 6.25 C0 4 0 4 0 0 Z " fill="#6FA8C1" transform="translate(1504,1244)"/>
<path d="M0 0 C2.31 0 4.62 0 7 0 C7 0.99 7 1.98 7 3 C6.01 3.495 6.01 3.495 5 4 C5 4.66 5 5.32 5 6 C2.69 5.34 0.38 4.68 -2 4 C-1.34 2.68 -0.68 1.36 0 0 Z " fill="#2281B4" transform="translate(1363,1186)"/>
<path d="M0 0 C0.66 0.66 1.32 1.32 2 2 C1.79296875 4.4609375 1.79296875 4.4609375 1.1875 7.375 C0.99542969 8.33148437 0.80335937 9.28796875 0.60546875 10.2734375 C0.10512457 12.52660034 -0.42283932 14.765488 -1 17 C-1.66 17 -2.32 17 -3 17 C-2.69268013 14.35346869 -2.37940678 11.707885 -2.0625 9.0625 C-1.97548828 8.30775391 -1.88847656 7.55300781 -1.79882812 6.77539062 C-1.11328125 1.11328125 -1.11328125 1.11328125 0 0 Z " fill="#334B57" transform="translate(1071,959)"/>
<path d="M0 0 C8.25 0 16.5 0 25 0 C25 0.33 25 0.66 25 1 C24.37955811 1.01981934 23.75911621 1.03963867 23.11987305 1.06005859 C20.30865463 1.15531845 17.49817834 1.26499302 14.6875 1.375 C13.71103516 1.4059375 12.73457031 1.436875 11.72851562 1.46875 C10.32182617 1.52675781 10.32182617 1.52675781 8.88671875 1.5859375 C8.02264404 1.6173584 7.15856934 1.6487793 6.26831055 1.68115234 C3.72257555 1.87188037 3.72257555 1.87188037 1 4 C0.01 4.33 -0.98 4.66 -2 5 C-1.34 3.35 -0.68 1.7 0 0 Z " fill="#6094A8" transform="translate(956,691)"/>
<path d="M0 0 C2.97 0.495 2.97 0.495 6 1 C7.125 5.75 7.125 5.75 6 8 C6.66 8.33 7.32 8.66 8 9 C7.01 9 6.02 9 5 9 C3.35 6.03 1.7 3.06 0 0 Z " fill="#223841" transform="translate(589,770)"/>
<path d="M0 0 C0.66 0.33 1.32 0.66 2 1 C1.67 2.65 1.34 4.3 1 6 C0.34 6 -0.32 6 -1 6 C-1 7.32 -1 8.64 -1 10 C-1.99 10 -2.98 10 -4 10 C-4.33 11.32 -4.66 12.64 -5 14 C-5.66 14 -6.32 14 -7 14 C-5.23570801 9.02790438 -2.6060834 4.56561939 0 0 Z " fill="#65A9C7" transform="translate(934,726)"/>
<path d="M0 0 C0.66 0 1.32 0 2 0 C2 0.66 2 1.32 2 2 C2.763125 2.28875 3.52625 2.5775 4.3125 2.875 C7 4 7 4 10 6 C10 6.66 10 7.32 10 8 C10.99 8 11.98 8 13 8 C12.67 8.66 12.34 9.32 12 10 C10.02 10 8.04 10 6 10 C6.33 9.01 6.66 8.02 7 7 C6.01 6.67 5.02 6.34 4 6 C4 5.34 4 4.68 4 4 C2.68 4 1.36 4 0 4 C0 2.68 0 1.36 0 0 Z " fill="#62A8C5" transform="translate(1138,1174)"/>
<path d="M0 0 C3.78570414 1.26190138 4.21831571 2.54855815 6.1875 5.9375 C6.71730469 6.83339844 7.24710938 7.72929688 7.79296875 8.65234375 C9 11 9 11 9 13 C5.18377517 11.72792506 4.23444329 10.31562552 2 7 C1.13877458 4.67613476 0.56972337 2.42132432 0 0 Z " fill="#5098B4" transform="translate(1087,1115)"/>
<path d="M0 0 C0.66 0 1.32 0 2 0 C3.0257259 4.41062136 3.03684712 6.92630576 1 11 C0.01 10.67 -0.98 10.34 -2 10 C-1.34 6.7 -0.68 3.4 0 0 Z " fill="#1F3943" transform="translate(1075,944)"/>
<path d="M0 0 C4.76716839 0.581362 9.35901356 1.79974489 14 3 C14 3.33 14 3.66 14 4 C10.04 4 6.08 4 2 4 C2 3.34 2 2.68 2 2 C1.01 1.67 0.02 1.34 -1 1 C-0.67 0.67 -0.34 0.34 0 0 Z " fill="#559BBB" transform="translate(1202,1208)"/>
<path d="M0 0 C2.94721162 2.74395564 5.19168608 5.38337216 7 9 C6.67 9.66 6.34 10.32 6 11 C4.02 10.01 2.04 9.02 0 8 C0 5.36 0 2.72 0 0 Z " fill="#384D50" transform="translate(812,864)"/>
<path d="M0 0 C1.32 0 2.64 0 4 0 C2.43873668 3.83219177 -0.02866925 6.17361222 -3 9 C-3.8971875 9.8971875 -3.8971875 9.8971875 -4.8125 10.8125 C-5.204375 11.204375 -5.59625 11.59625 -6 12 C-6 10.68 -6 9.36 -6 8 C-5.34 8 -4.68 8 -4 8 C-4 7.34 -4 6.68 -4 6 C-3.34 6 -2.68 6 -2 6 C-1.34 4.02 -0.68 2.04 0 0 Z " fill="#5D9AB8" transform="translate(914,1300)"/>
<path d="M0 0 C3.81684226 1.55500981 6.19195732 4.03595495 9 7 C7.35 7 5.7 7 4 7 C4 6.34 4 5.68 4 5 C2.35 4.67 0.7 4.34 -1 4 C-0.67 2.68 -0.34 1.36 0 0 Z " fill="#304B50" transform="translate(1470,759)"/>
<path d="M0 0 C2.64 0 5.28 0 8 0 C7.25 2.4375 7.25 2.4375 6 5 C3.875 5.8125 3.875 5.8125 2 6 C0 3 0 3 0 0 Z " fill="#283D47" transform="translate(539,691)"/>
<path d="M0 0 C4.10899581 1.12795963 8.07561214 2.33510818 12 4 C12 4.33 12 4.66 12 5 C9.03 5 6.06 5 3 5 C3 4.34 3 3.68 3 3 C2.34 3 1.68 3 1 3 C0.67 2.01 0.34 1.02 0 0 Z " fill="#5FA4C2" transform="translate(1183,1201)"/>
<path d="M0 0 C1.32 0 2.64 0 4 0 C4 0.66 4 1.32 4 2 C3.01 2 2.02 2 1 2 C1 2.66 1 3.32 1 4 C-0.96147874 5.38938077 -2.96166576 6.7260411 -5 8 C-5.66 7.67 -6.32 7.34 -7 7 C-6.67 6.01 -6.34 5.02 -6 4 C-5.01 4 -4.02 4 -3 4 C-3 3.34 -3 2.68 -3 2 C-2.01 2 -1.02 2 0 2 C0 1.34 0 0.68 0 0 Z " fill="#6AA7C4" transform="translate(1457,1292)"/>
<path d="M0 0 C2.12075567 3.18113351 3.06017176 5.92004956 4.1875 9.5625 C4.55230469 10.71878906 4.91710938 11.87507813 5.29296875 13.06640625 C6 16 6 16 5 18 C4.34 17.67 3.68 17.34 3 17 C2.1484375 14.19921875 2.1484375 14.19921875 1.375 10.6875 C1.11460938 9.53636719 0.85421875 8.38523437 0.5859375 7.19921875 C0 4 0 4 0 0 Z " fill="#66A2BD" transform="translate(1071,1072)"/>
<path d="M0 0 C1.32 0.33 2.64 0.66 4 1 C0.7 3.31 -2.6 5.62 -6 8 C-6.66 7.67 -7.32 7.34 -8 7 C-7 4 -7 4 -4 2 C-2.68 2 -1.36 2 0 2 C0 1.34 0 0.68 0 0 Z " fill="#74AEC4" transform="translate(1446,1300)"/>
<path d="M0 0 C0.66 0.33 1.32 0.66 2 1 C2.625 3.0625 2.625 3.0625 3 5 C2.01 5.66 1.02 6.32 0 7 C0 6.34 0 5.68 0 5 C-1.32 4.67 -2.64 4.34 -4 4 C-2.68 3.67 -1.36 3.34 0 3 C0 2.01 0 1.02 0 0 Z M4 0 C4.99 0.33 5.98 0.66 7 1 C5.68 1.33 4.36 1.66 3 2 C3.33 1.34 3.66 0.68 4 0 Z " fill="#107AB0" transform="translate(1388,1169)"/>
<path d="M0 0 C0.33 0.66 0.66 1.32 1 2 C1.99 2 2.98 2 4 2 C4.66 3.98 5.32 5.96 6 8 C1.25 7.125 1.25 7.125 -1 6 C-0.67 4.02 -0.34 2.04 0 0 Z " fill="#3A90BA" transform="translate(1078,1098)"/>
<path d="M0 0 C1.32 0 2.64 0 4 0 C2.8141763 3.37503669 1.72426311 5.64722731 -1 8 C-1 7.34 -1 6.68 -1 6 C-1.66 6 -2.32 6 -3 6 C-3 5.34 -3 4.68 -3 4 C-2.34 4 -1.68 4 -1 4 C-0.67 2.68 -0.34 1.36 0 0 Z " fill="#2C4549" transform="translate(1101,900)"/>
<path d="M0 0 C0.66 0.66 1.32 1.32 2 2 C1.625 4.625 1.625 4.625 1 7 C1.99 7 2.98 7 4 7 C3.67 8.32 3.34 9.64 3 11 C0.25722422 7.80009492 -1.6302836 4.99500618 -3 1 C-2.01 0.67 -1.02 0.34 0 0 Z " fill="#30484F" transform="translate(654,865)"/>
<path d="M0 0 C2.31 0 4.62 0 7 0 C7.33 0.66 7.66 1.32 8 2 C4.17679443 3.42258812 1.08718695 4.24042276 -3 4 C-2.67 3.34 -2.34 2.68 -2 2 C-1.34 2 -0.68 2 0 2 C0 1.34 0 0.68 0 0 Z " fill="#1C7CB0" transform="translate(1387,1328)"/>
<path d="M0 0 C0.66 0.33 1.32 0.66 2 1 C2 2.65 2 4.3 2 6 C0.68 6.33 -0.64 6.66 -2 7 C-2.33 8.65 -2.66 10.3 -3 12 C-3.66 12 -4.32 12 -5 12 C-3.68938409 7.76570244 -2.05643741 3.92592596 0 0 Z " fill="#66A6C2" transform="translate(839,880)"/>
<path d="M0 0 C2.91488977 2.6234008 4.88503898 5.71816394 7 9 C6.67 9.66 6.34 10.32 6 11 C4.66666667 11 3.33333333 11 2 11 C2 9.02 2 7.04 2 5 C1.34 4.67 0.68 4.34 0 4 C0 2.68 0 1.36 0 0 Z " fill="#3C5254" transform="translate(819,875)"/>
<path d="M0 0 C1.98 0 3.96 0 6 0 C2.72291137 3.67033927 -0.71522208 5.69281189 -5 8 C-5 7.34 -5 6.68 -5 6 C-4.34 6 -3.68 6 -3 6 C-2.690625 5.38125 -2.38125 4.7625 -2.0625 4.125 C-1.375 2.75 -0.6875 1.375 0 0 Z " fill="#1F7DAF" transform="translate(1219,712)"/>
<path d="M0 0 C1.6026782 -0.10824843 3.20745748 -0.18570645 4.8125 -0.25 C5.70582031 -0.29640625 6.59914063 -0.3428125 7.51953125 -0.390625 C10 0 10 0 11.82421875 2.015625 C12.40623047 2.99789063 12.40623047 2.99789063 13 4 C8.51474352 3.343621 4.33085971 2.29925791 0 1 C0 0.67 0 0.34 0 0 Z " fill="#64A2BE" transform="translate(1151,1340)"/>
<path d="M0 0 C3.63 0.33 7.26 0.66 11 1 C11 1.66 11 2.32 11 3 C12.32 3.66 13.64 4.32 15 5 C9.7415998 4.32584613 4.97361654 2.75734451 0 1 C0 0.67 0 0.34 0 0 Z " fill="#6BA9C3" transform="translate(1136,1335)"/>
<path d="M0 0 C0.66 0.33 1.32 0.66 2 1 C1.34 2.65 0.68 4.3 0 6 C-0.99 6 -1.98 6 -3 6 C-3.33 5.67 -3.66 5.34 -4 5 C-4 5.99 -4 6.98 -4 8 C-4.99 8 -5.98 8 -7 8 C-7 7.34 -7 6.68 -7 6 C-6.34 6 -5.68 6 -5 6 C-5 5.34 -5 4.68 -5 4 C-3.37373596 2.61767557 -1.7074998 1.28062485 0 0 Z " fill="#62ABC9" transform="translate(1392,1164)"/>
<path d="M0 0 C-0.556875 0.12375 -1.11375 0.2475 -1.6875 0.375 C-4.22114364 1.05976855 -6.57921032 1.99133763 -9 3 C-9.66 2.01 -10.32 1.02 -11 0 C-7.07632508 -2.82504594 -4.32061114 -1.49559616 0 0 Z " fill="#0D2731" transform="translate(1224,826)"/>
<path d="M0 0 C1.04449911 3.13349732 0.93423645 3.98968256 0 7 C-0.66 7 -1.32 7 -2 7 C-2.33 7.99 -2.66 8.98 -3 10 C-3.99 9.67 -4.98 9.34 -6 9 C-4.02 6.03 -2.04 3.06 0 0 Z " fill="#04334E" transform="translate(1132,810)"/>
<path d="M0 0 C1.32 0.33 2.64 0.66 4 1 C1.69 4.63 -0.62 8.26 -3 12 C-3.33 10.68 -3.66 9.36 -4 8 C-3.34 8 -2.68 8 -2 8 C-2 6.68 -2 5.36 -2 4 C-1.34 4 -0.68 4 0 4 C0 2.68 0 1.36 0 0 Z " fill="#1D7EAE" transform="translate(1127,812)"/>
<path d="M0 0 C0.99 0.33 1.98 0.66 3 1 C0.36 4.63 -2.28 8.26 -5 12 C-5.33 10.68 -5.66 9.36 -6 8 C-5.34 8 -4.68 8 -4 8 C-4 6.68 -4 5.36 -4 4 C-3.01 4 -2.02 4 -1 4 C-0.67 2.68 -0.34 1.36 0 0 Z " fill="#207DAF" transform="translate(1142,792)"/>
<path d="M0 0 C1.32 0.33 2.64 0.66 4 1 C-0.455 4.465 -0.455 4.465 -5 8 C-5.33 6.68 -5.66 5.36 -6 4 C-5.34 3.34 -4.68 2.68 -4 2 C-2.68 2 -1.36 2 0 2 C0 1.34 0 0.68 0 0 Z " fill="#609EC1" transform="translate(1468,1284)"/>
<path d="M0 0 C0.99 0 1.98 0 3 0 C3 1.32 3 2.64 3 4 C2.34 4 1.68 4 1 4 C1 5.98 1 7.96 1 10 C0.34 10 -0.32 10 -1 10 C-1.33 10.66 -1.66 11.32 -2 12 C-1.855625 11.319375 -1.71125 10.63875 -1.5625 9.9375 C-0.93054091 6.63726918 -0.45686059 3.32855574 0 0 Z " fill="#1277AC" transform="translate(938,1256)"/>
<path d="M0 0 C1.2065625 0.0309375 1.2065625 0.0309375 2.4375 0.0625 C1.82472388 3.02425123 1.18377478 4.44308783 -0.5625 7.0625 C-1.5525 5.0825 -2.5425 3.1025 -3.5625 1.0625 C-2.5625 0.0625 -2.5625 0.0625 0 0 Z " fill="#293E47" transform="translate(724.5625,975.9375)"/>
<path d="M0 0 C0.66 0.66 1.32 1.32 2 2 C0.515 4.475 0.515 4.475 -1 7 C-2.32 6.67 -3.64 6.34 -5 6 C-4.34 4.35 -3.68 2.7 -3 1 C-2.01 1.33 -1.02 1.66 0 2 C0 1.34 0 0.68 0 0 Z " fill="#0D7AB3" transform="translate(867,841)"/>
<path d="M0 0 C2.72869407 0.03287583 5.2966618 0.56397771 8 1 C8 2.32 8 3.64 8 5 C4.7 4.01 1.4 3.02 -2 2 C-1.34 1.34 -0.68 0.68 0 0 Z " fill="#41595D" transform="translate(1329,835)"/>
<path d="M0 0 C0.94875 0.04125 1.8975 0.0825 2.875 0.125 C2.875 1.115 2.875 2.105 2.875 3.125 C0 3.75 0 3.75 -3.125 4.125 C-3.785 3.465 -4.445 2.805 -5.125 2.125 C-3.125 0.125 -3.125 0.125 0 0 Z " fill="#0E2730" transform="translate(1306.125,824.875)"/>
<path d="M0 0 C3.63 0 7.26 0 11 0 C11 0.66 11 1.32 11 2 C8.69 2 6.38 2 4 2 C4 2.66 4 3.32 4 4 C3.01 3.67 2.02 3.34 1 3 C0.67 2.01 0.34 1.02 0 0 Z " fill="#0E77AE" transform="translate(842,1344)"/>
<path d="M0 0 C2.97 0.495 2.97 0.495 6 1 C6 1.66 6 2.32 6 3 C7.32 3 8.64 3 10 3 C10.33 4.32 10.66 5.64 11 7 C6.89188572 5.55007731 3.53144334 3.54592427 0 1 C0 0.67 0 0.34 0 0 Z " fill="#5D9FBF" transform="translate(1077,1305)"/>
<path d="M0 0 C-1.375 1.5 -1.375 1.5 -3 3 C-6 3 -9 3 -12 3 C-11 1 -11 1 -9.375 0.375 C-6.2339425 -0.12095645 -3.17398169 -0.06103811 0 0 Z " fill="#1D78A8" transform="translate(1304,1213)"/>
<path d="M0 0 C0.66 0.33 1.32 0.66 2 1 C0.60667426 4.36720387 -0.9789286 5.9859524 -4 8 C-4 6.02 -4 4.04 -4 2 C-2.68 2 -1.36 2 0 2 C0 1.34 0 0.68 0 0 Z " fill="#233943" transform="translate(1424,862)"/>
<path d="M0 0 C0.99 0.33 1.98 0.66 3 1 C4.1875 4.5625 4.1875 4.5625 5 8 C4.01 7.67 3.02 7.34 2 7 C2 6.34 2 5.68 2 5 C1.01 5 0.02 5 -1 5 C-0.67 3.35 -0.34 1.7 0 0 Z " fill="#06252E" transform="translate(764,793)"/>
<path d="M0 0 C0.99 0.33 1.98 0.66 3 1 C1.02 3.31 -0.96 5.62 -3 8 C-3.33 7.34 -3.66 6.68 -4 6 C-3.67 5.34 -3.34 4.68 -3 4 C-3.66 3.67 -4.32 3.34 -5 3 C-3.35 2.67 -1.7 2.34 0 2 C0 1.34 0 0.68 0 0 Z " fill="#1F82B6" transform="translate(1164,764)"/>
<path d="M0 0 C2.0625 0.4375 2.0625 0.4375 4 1 C3.67 1.99 3.34 2.98 3 4 C2.01 4 1.02 4 0 4 C0 4.66 0 5.32 0 6 C-0.99 6 -1.98 6 -3 6 C-1.125 1.125 -1.125 1.125 0 0 Z " fill="#1784C1" transform="translate(1174,750)"/>
<path d="M0 0 C4.29 0 8.58 0 13 0 C13.33 0.99 13.66 1.98 14 3 C12.22844346 2.88570603 10.45773771 2.75816963 8.6875 2.625 C7.70136719 2.55539062 6.71523437 2.48578125 5.69921875 2.4140625 C3 2 3 2 0 0 Z " fill="#72ADC6" transform="translate(1181,1348)"/>
<path d="M0 0 C0.99 0 1.98 0 3 0 C3.33 0.99 3.66 1.98 4 3 C3.01 3.33 2.02 3.66 1 4 C1 4.66 1 5.32 1 6 C0.01 6.33 -0.98 6.66 -2 7 C-1.125 1.125 -1.125 1.125 0 0 Z " fill="#3E8FBA" transform="translate(1475,1276)"/>
<path d="M0 0 C0.99 0.33 1.98 0.66 3 1 C3 1.66 3 2.32 3 3 C3.639375 3.28875 4.27875 3.5775 4.9375 3.875 C7 5 7 5 8 7 C5.6875 7.3125 5.6875 7.3125 3 7 C1.18116991 4.6167054 0 3.04181663 0 0 Z " fill="#559CBD" transform="translate(1480,1223)"/>
<path d="M0 0 C0.33 0.66 0.66 1.32 1 2 C2.64363134 2.72159424 4.31050386 3.39351421 6 4 C6 4.66 6 5.32 6 6 C6.66 6 7.32 6 8 6 C8 6.66 8 7.32 8 8 C7.01 8 6.02 8 5 8 C5 7.34 5 6.68 5 6 C4.01 6 3.02 6 2 6 C2 5.34 2 4.68 2 4 C1.34 4 0.68 4 0 4 C0 2.68 0 1.36 0 0 Z " fill="#69AAC0" transform="translate(1434,1180)"/>
<path d="M0 0 C5.78461538 3.44615385 5.78461538 3.44615385 6.875 6.25 C6.936875 7.11625 6.936875 7.11625 7 8 C4.08482708 6.92598892 2.22189824 6.22189824 0 4 C0 2.68 0 1.36 0 0 Z " fill="#4A94B6" transform="translate(1410,1158)"/>
<path d="M0 0 C1.32 0 2.64 0 4 0 C4.66 2.31 5.32 4.62 6 7 C5.01 7 4.02 7 3 7 C0 2.77777778 0 2.77777778 0 0 Z " fill="#344A52" transform="translate(766,1048)"/>
<path d="M0 0 C2.64107354 2.46741391 3.79641403 4.57440916 5 8 C4.01 8.66 3.02 9.32 2 10 C0.41727399 8.41727399 0.65264253 6.61965997 0.4375 4.4375 C0.35371094 3.61121094 0.26992188 2.78492188 0.18359375 1.93359375 C0.12300781 1.29550781 0.06242188 0.65742187 0 0 Z " fill="#2B444B" transform="translate(826,886)"/>
<path d="M0 0 C3 1 3 1 5 4 C5 4.99 5 5.98 5 7 C3.68 6.67 2.36 6.34 1 6 C1 5.01 1 4.02 1 3 C0.34 2.67 -0.32 2.34 -1 2 C-0.67 1.34 -0.34 0.68 0 0 Z " fill="#2C434B" transform="translate(794,837)"/>
<path d="M0 0 C-0.33 0.99 -0.66 1.98 -1 3 C-5.455 2.01 -5.455 2.01 -10 1 C-6.1496895 -1.56687367 -4.41430237 -0.83288724 0 0 Z " fill="#334A4F" transform="translate(1328,833)"/>
<path d="M0 0 C0.66 0.33 1.32 0.66 2 1 C0.87895467 2.31587941 -0.24696965 3.62760353 -1.375 4.9375 C-2.00148438 5.66839844 -2.62796875 6.39929688 -3.2734375 7.15234375 C-5 9 -5 9 -7 10 C-6.67 8.68 -6.34 7.36 -6 6 C-5.34 6 -4.68 6 -4 6 C-3.34 4.68 -2.68 3.36 -2 2 C-1.34 2 -0.68 2 0 2 C0 1.34 0 0.68 0 0 Z " fill="#227CAD" transform="translate(1174,754)"/>
<path d="M0 0 C-0.66 1.65 -1.32 3.3 -2 5 C-2.66 5 -3.32 5 -4 5 C-4.33 5.99 -4.66 6.98 -5 8 C-5.99 7.34 -6.98 6.68 -8 6 C-7.0479279 4.99403703 -6.08812654 3.99538437 -5.125 3 C-4.59132813 2.443125 -4.05765625 1.88625 -3.5078125 1.3125 C-2 0 -2 0 0 0 Z " fill="#053751" transform="translate(1189,743)"/>
<path d="M0 0 C-1.28965176 1.37562854 -2.62689293 2.70766393 -4 4 C-4.66 4 -5.32 4 -6 4 C-6 4.66 -6 5.32 -6 6 C-6.66 5.67 -7.32 5.34 -8 5 C-8 4.01 -8 3.02 -8 2 C-4.77208445 -0.1519437 -3.71599191 -0.20086443 0 0 Z " fill="#5599BC" transform="translate(896,1322)"/>
<path d="M0 0 C0.99 0.495 0.99 0.495 2 1 C2.59355614 3.64860427 2.74209269 6.29197322 3 9 C2.01 9 1.02 9 0 9 C0 6.03 0 3.06 0 0 Z " fill="#438DB4" transform="translate(1068,1063)"/>
<path d="M0 0 C0.99 0 1.98 0 3 0 C3 1.32 3 2.64 3 4 C3.66 4 4.32 4 5 4 C5 5.65 5 7.3 5 9 C2.9754262 7.06745228 1.57894208 5.36841312 0 3 C0 2.01 0 1.02 0 0 Z " fill="#314750" transform="translate(701,944)"/>
<path d="M0 0 C0.33 0.66 0.66 1.32 1 2 C1.66 2 2.32 2 3 2 C1.87548273 4.9719385 0.77706209 7.33440687 -1 10 C-2.15837626 5.94568308 -1.83691257 3.78187881 0 0 Z " fill="#364D55" transform="translate(1087,921)"/>
<path d="M0 0 C0.66 0.99 1.32 1.98 2 3 C0.6875 5.5 0.6875 5.5 -1 8 C-1.99 8 -2.98 8 -4 8 C-3.34 6.02 -2.68 4.04 -2 2 C-1.34 2 -0.68 2 0 2 C0 1.34 0 0.68 0 0 Z " fill="#519EC3" transform="translate(847,868)"/>
<path d="M0 0 C0.66 1.32 1.32 2.64 2 4 C-1.3 3.67 -4.6 3.34 -8 3 C-8 2.34 -8 1.68 -8 1 C-5.36 0.67 -2.72 0.34 0 0 Z " fill="#405157" transform="translate(1301,825)"/>
<path d="M0 0 C0.33 1.32 0.66 2.64 1 4 C-1.31 5.98 -3.62 7.96 -6 10 C-4.6302836 6.00499382 -2.74277578 3.19990508 0 0 Z " fill="#05314C" transform="translate(1139,800)"/>
<path d="M0 0 C3.08089673 2.77280706 4.68775452 5.06326356 6 9 C2.83282717 7.41641358 1.26731682 6.54736301 -0.3125 3.3125 C-0.539375 2.549375 -0.76625 1.78625 -1 1 C-0.67 0.67 -0.34 0.34 0 0 Z " fill="#43585B" transform="translate(767,793)"/>
<path d="M0 0 C3.63 0 7.26 0 11 0 C11 0.66 11 1.32 11 2 C4.6 3.23076923 4.6 3.23076923 1.5625 2.0625 C1.046875 1.711875 0.53125 1.36125 0 1 C0 0.67 0 0.34 0 0 Z " fill="#1A7AAD" transform="translate(1090,1312)"/>
<path d="M0 0 C1.32 0.33 2.64 0.66 4 1 C4 2.65 4 4.3 4 6 C3.34 6 2.68 6 2 6 C2 5.34 2 4.68 2 4 C0.68 4 -0.64 4 -2 4 C-2 3.34 -2 2.68 -2 2 C-1.34 1.67 -0.68 1.34 0 1 C0 0.67 0 0.34 0 0 Z " fill="#0E78AD" transform="translate(1496,1240)"/>
<path d="M0 0 C-0.66 0 -1.32 0 -2 0 C-2 0.99 -2 1.98 -2 3 C-4.31 3 -6.62 3 -9 3 C-5.83583464 -0.30799106 -4.50236011 -1.35070803 0 0 Z " fill="#458EB2" transform="translate(1325,1207)"/>
<path d="M0 0 C-6.4 4.06153846 -6.4 4.06153846 -9.4375 3.75 C-9.953125 3.5025 -10.46875 3.255 -11 3 C-3.53658537 -1.76829268 -3.53658537 -1.76829268 0 0 Z " fill="#3A8BB1" transform="translate(1360,1192)"/>
<path d="M0 0 C2 0 2 0 4.125 1.875 C6 4 6 4 6 6 C6.66 6 7.32 6 8 6 C8 6.66 8 7.32 8 8 C7.01 8 6.02 8 5 8 C5 7.34 5 6.68 5 6 C4.360625 5.7525 3.72125 5.505 3.0625 5.25 C1 4 1 4 0.25 1.875 C0.1675 1.25625 0.085 0.6375 0 0 Z " fill="#579CB8" transform="translate(1120,1158)"/>
<path d="M0 0 C0.66 0 1.32 0 2 0 C2.33 1.65 2.66 3.3 3 5 C3.99 5.33 4.98 5.66 6 6 C5.67 6.99 5.34 7.98 5 9 C2.33264727 6.51047079 0.44253657 4.36591866 -1 1 C-0.67 0.67 -0.34 0.34 0 0 Z " fill="#435159" transform="translate(797,1096)"/>
<path d="M0 0 C0.33 0 0.66 0 1 0 C0.50769231 6.4 0.50769231 6.4 -2.0625 9.4375 C-2.701875 9.953125 -3.34125 10.46875 -4 11 C-3.52269162 9.5410574 -3.04308958 8.08286504 -2.5625 6.625 C-2.29566406 5.81289063 -2.02882813 5.00078125 -1.75390625 4.1640625 C-1 2 -1 2 0 0 Z " fill="#1F79A4" transform="translate(827,907)"/>
<path d="M0 0 C2.475 0.99 2.475 0.99 5 2 C5 3.32 5 4.64 5 6 C4.01 6.495 4.01 6.495 3 7 C0 2.25 0 2.25 0 0 Z " fill="#284146" transform="translate(667,891)"/>
<path d="M0 0 C0.66 0 1.32 0 2 0 C2 0.66 2 1.32 2 2 C3.98 2 5.96 2 8 2 C5.08235 3.9451 3.37462715 4.45276317 0 5 C-0.33 4.01 -0.66 3.02 -1 2 C-0.67 1.34 -0.34 0.68 0 0 Z " fill="#30444D" transform="translate(1184,834)"/>
<path d="M0 0 C0.66 0.33 1.32 0.66 2 1 C2 1.99 2 2.98 2 4 C2.66 4 3.32 4 4 4 C4 4.66 4 5.32 4 6 C3.34 6 2.68 6 2 6 C1.67 6.66 1.34 7.32 1 8 C0.34 7.67 -0.32 7.34 -1 7 C-0.67 4.69 -0.34 2.38 0 0 Z " fill="#0C2633" transform="translate(568,729)"/>
<path d="M0 0 C2.64 0 5.28 0 8 0 C8 0.99 8 1.98 8 3 C5.36 2.67 2.72 2.34 0 2 C0 1.34 0 0.68 0 0 Z " fill="#227AA2" transform="translate(1181,1346)"/>
<path d="M0 0 C1.65 0 3.3 0 5 0 C3.87548273 2.9719385 2.77706209 5.33440687 1 8 C0.34 7.67 -0.32 7.34 -1 7 C-0.67 4.69 -0.34 2.38 0 0 Z " fill="#62A2C1" transform="translate(919,1292)"/>
<path d="M0 0 C1.32 0 2.64 0 4 0 C3.67 1.98 3.34 3.96 3 6 C2.34 6 1.68 6 1 6 C1 5.34 1 4.68 1 4 C0.34 4 -0.32 4 -1 4 C-0.67 2.68 -0.34 1.36 0 0 Z " fill="#3B8EBA" transform="translate(998,1234)"/>
<path d="M0 0 C1.485 0.99 1.485 0.99 3 2 C3 2.66 3 3.32 3 4 C3.99 4.33 4.98 4.66 6 5 C6 5.33 6 5.66 6 6 C4.02 6 2.04 6 0 6 C0 4.02 0 2.04 0 0 Z " fill="#56A2BD" transform="translate(1458,1202)"/>
<path d="M0 0 C0.66 0.66 1.32 1.32 2 2 C1.625 4.625 1.625 4.625 1 7 C-0.32 6.34 -1.64 5.68 -3 5 C-1.125 1.125 -1.125 1.125 0 0 Z " fill="#0B77AD" transform="translate(971,1191)"/>
<path d="M0 0 C2.31 0.33 4.62 0.66 7 1 C6.67 1.66 6.34 2.32 6 3 C4.68 3 3.36 3 2 3 C2 3.66 2 4.32 2 5 C1.01 4.67 0.02 4.34 -1 4 C-0.67 2.68 -0.34 1.36 0 0 Z " fill="#0C2632" transform="translate(1203,827)"/>
<path d="M0 0 C0.33 0.66 0.66 1.32 1 2 C-2.63 2.66 -6.26 3.32 -10 4 C-10 3.34 -10 2.68 -10 2 C-6.49223216 0.39644899 -3.85645121 -0.22036864 0 0 Z " fill="#47585F" transform="translate(1215,828)"/>
<path d="M0 0 C0.99 0.99 1.98 1.98 3 3 C1.02 4.32 -0.96 5.64 -3 7 C-2.625 4.0625 -2.625 4.0625 -2 1 C-1.34 0.67 -0.68 0.34 0 0 Z " fill="#304750" transform="translate(1481,809)"/>
<path d="M0 0 C0.66 0.66 1.32 1.32 2 2 C0.02 4.31 -1.96 6.62 -4 9 C-4.33 8.01 -4.66 7.02 -5 6 C-4.34 6 -3.68 6 -3 6 C-3.33 5.01 -3.66 4.02 -4 3 C-2.68 2.67 -1.36 2.34 0 2 C0 1.34 0 0.68 0 0 Z " fill="#1D7EAE" transform="translate(1150,782)"/>
<path d="M0 0 C1.32 0.33 2.64 0.66 4 1 C3.67 2.65 3.34 4.3 3 6 C2.01 6 1.02 6 0 6 C0 4.02 0 2.04 0 0 Z " fill="#0C282F" transform="translate(703,696)"/>
<path d="M0 0 C0.66 0.99 1.32 1.98 2 3 C0.625 4.5 0.625 4.5 -1 6 C-1.66 6 -2.32 6 -3 6 C-3 6.66 -3 7.32 -3 8 C-3.66 7.67 -4.32 7.34 -5 7 C-4.34 5.35 -3.68 3.7 -3 2 C-2.01 2 -1.02 2 0 2 C0 1.34 0 0.68 0 0 Z " fill="#62A1BF" transform="translate(901,1314)"/>
<path d="M0 0 C0.99 0 1.98 0 3 0 C1.68775452 3.93673644 0.08089673 6.22719294 -3 9 C-2.67 7.35 -2.34 5.7 -2 4 C-1.34 4 -0.68 4 0 4 C0 2.68 0 1.36 0 0 Z " fill="#67A1BF" transform="translate(928,1282)"/>
<path d="M0 0 C2.475 0.99 2.475 0.99 5 2 C5 2.66 5 3.32 5 4 C2.5 5.625 2.5 5.625 0 7 C0 4.69 0 2.38 0 0 Z " fill="#137CAD" transform="translate(1429,1178)"/>
<path d="M0 0 C0.66 0 1.32 0 2 0 C2.33 1.32 2.66 2.64 3 4 C3.66 4 4.32 4 5 4 C5 5.32 5 6.64 5 8 C4.34 8 3.68 8 3 8 C2.566875 6.5459375 2.566875 6.5459375 2.125 5.0625 C1.35785318 1.89335797 1.35785318 1.89335797 -1 1 C-0.67 0.67 -0.34 0.34 0 0 Z " fill="#529DC0" transform="translate(952,1166)"/>
<path d="M0 0 C0.99 0 1.98 0 3 0 C1.55746343 3.36591866 -0.33264727 5.51047079 -3 8 C-2.45276317 4.62537285 -1.9451 2.91765 0 0 Z " fill="#4A585B" transform="translate(1109,892)"/>
<path d="M0 0 C0.99 0.33 1.98 0.66 3 1 C3 1.99 3 2.98 3 4 C3.66 4.33 4.32 4.66 5 5 C4.01 6.485 4.01 6.485 3 8 C0 3.375 0 3.375 0 0 Z " fill="#2B4147" transform="translate(643,852)"/>
<path d="M0 0 C1.98 0 3.96 0 6 0 C6.66 1.65 7.32 3.3 8 5 C4.62496331 3.8141763 2.35277269 2.72426311 0 0 Z " fill="#3F535A" transform="translate(1358,850)"/>
<path d="M0 0 C0.99 0 1.98 0 3 0 C2.67 1.65 2.34 3.3 2 5 C0.35 5.33 -1.3 5.66 -3 6 C-1.125 1.125 -1.125 1.125 0 0 Z " fill="#4397C1" transform="translate(874,824)"/>
<path d="M0 0 C2 1 4 2 6 3 C6.625 5.0625 6.625 5.0625 7 7 C6.01 7 5.02 7 4 7 C2.02 3.535 2.02 3.535 0 0 Z " fill="#495C63" transform="translate(620,819)"/>
<path d="M0 0 C2.99324263 1.0975223 3.84610901 1.67682892 5.25 4.625 C5.4975 5.40875 5.745 6.1925 6 7 C3.5625 6.3125 3.5625 6.3125 1 5 C0.1875 2.375 0.1875 2.375 0 0 Z " fill="#3A5057" transform="translate(750,768)"/>
<path d="M0 0 C1.98 0.99 1.98 0.99 4 2 C4 3.32 4 4.64 4 6 C2.68 5.67 1.36 5.34 0 5 C0 3.35 0 1.7 0 0 Z " fill="#20383F" transform="translate(736,746)"/>
<path d="M0 0 C0.33 0.66 0.66 1.32 1 2 C0.67 2.66 0.34 3.32 0 4 C-0.66 4 -1.32 4 -2 4 C-2 4.66 -2 5.32 -2 6 C-3.65 6 -5.3 6 -7 6 C-4.74259377 3.66475218 -2.7194239 1.81294927 0 0 Z " fill="#04324B" transform="translate(1225,712)"/>
<path d="M0 0 C5.625 -0.25 5.625 -0.25 9 2 C9 2.66 9 3.32 9 4 C6.03 3.01 3.06 2.02 0 1 C0 0.67 0 0.34 0 0 Z " fill="#70A9C1" transform="translate(1124,1330)"/>
<path d="M0 0 C0.99 0 1.98 0 3 0 C4.42944945 2.35438733 5.08661261 3.48032433 4.625 6.25 C4.41875 6.8275 4.2125 7.405 4 8 C0 2.25 0 2.25 0 0 Z " fill="#63A5C0" transform="translate(976,1208)"/>
<path d="M0 0 C2.475 0.495 2.475 0.495 5 1 C5 2.98 5 4.96 5 7 C3.29115995 5.37660195 1.62553283 3.70680947 0 2 C0 1.34 0 0.68 0 0 Z " fill="#5CA2C4" transform="translate(971,1201)"/>
<path d="M0 0 C4.875 4.75 4.875 4.75 6 7 C3.03 6.505 3.03 6.505 0 6 C0 4.02 0 2.04 0 0 Z " fill="#60A7C4" transform="translate(1109,1145)"/>
<path d="M0 0 C0.33 0.99 0.66 1.98 1 3 C0.01 3.99 -0.98 4.98 -2 6 C-2.99 5.34 -3.98 4.68 -5 4 C-5 3.34 -5 2.68 -5 2 C-3.35 2 -1.7 2 0 2 C0 1.34 0 0.68 0 0 Z " fill="#2388BC" transform="translate(1084,1106)"/>
<path d="M0 0 C0.66 0.33 1.32 0.66 2 1 C0.63016497 4.16115776 0.0109362 4.9927092 -3 7 C-3 6.34 -3 5.68 -3 5 C-3.66 4.67 -4.32 4.34 -5 4 C-3.35 3.67 -1.7 3.34 0 3 C0 2.01 0 1.02 0 0 Z " fill="#3E535B" transform="translate(1129,871)"/>
<path d="M0 0 C0.66 0 1.32 0 2 0 C2.66 1.98 3.32 3.96 4 6 C3.01 6 2.02 6 1 6 C0.34 4.35 -0.32 2.7 -1 1 C-0.67 0.67 -0.34 0.34 0 0 Z " fill="#344750" transform="translate(632,834)"/>
<path d="M0 0 C3 0 3 0 4.6875 1.5 C5.120625 1.995 5.55375 2.49 6 3 C5.67 3.66 5.34 4.32 5 5 C4.67 4.67 4.34 4.34 4 4 C3.34 4.66 2.68 5.32 2 6 C0 3 0 3 0 0 Z " fill="#2A4348" transform="translate(770,802)"/>
<path d="M0 0 C1.32 0.33 2.64 0.66 4 1 C4 1.99 4 2.98 4 4 C3.34 4 2.68 4 2 4 C2 4.66 2 5.32 2 6 C1.34 6 0.68 6 0 6 C0 4.02 0 2.04 0 0 Z " fill="#1285C5" transform="translate(1143,784)"/>
<path d="M0 0 C1.9375 0.75 1.9375 0.75 4 2 C4.75 4.125 4.75 4.125 5 6 C3.35 5.67 1.7 5.34 0 5 C-0.5625 3.0625 -0.5625 3.0625 -1 1 C-0.67 0.67 -0.34 0.34 0 0 Z " fill="#07242A" transform="translate(755,778)"/>
<path d="M0 0 C0.33 0.66 0.66 1.32 1 2 C0.34 2 -0.32 2 -1 2 C-1.66 3.32 -2.32 4.64 -3 6 C-4.32 5.67 -5.64 5.34 -7 5 C-4.69 3.35 -2.38 1.7 0 0 Z " fill="#043151" transform="translate(1217,718)"/>
<path d="M0 0 C0.99 0.33 1.98 0.66 3 1 C1.515 4.465 1.515 4.465 0 8 C-0.66 7.01 -1.32 6.02 -2 5 C-1.125 2.3125 -1.125 2.3125 0 0 Z " fill="#1078B2" transform="translate(941,718)"/>
<path d="M0 0 C2.97 0.99 5.94 1.98 9 3 C8.01 3.66 7.02 4.32 6 5 C6 4.34 6 3.68 6 3 C5.34 3 4.68 3 4 3 C3.67 3.66 3.34 4.32 3 5 C2.01 3.35 1.02 1.7 0 0 Z " fill="#51686C" transform="translate(1386,711)"/>
<path d="M0 0 C0.33 0.66 0.66 1.32 1 2 C0.34 2 -0.32 2 -1 2 C-1.33 2.99 -1.66 3.98 -2 5 C-3.98 5.33 -5.96 5.66 -8 6 C-5.51047079 3.33264727 -3.36591866 1.44253657 0 0 Z " fill="#04364E" transform="translate(1241,702)"/>
<path d="M0 0 C2.64 0.33 5.28 0.66 8 1 C4.5647952 3.29013653 3.014669 3.17842973 -1 3 C-0.67 2.01 -0.34 1.02 0 0 Z " fill="#3F93BB" transform="translate(1403,1322)"/>
<path d="M0 0 C1.32 0.33 2.64 0.66 4 1 C2.625 2.5 2.625 2.5 1 4 C0.34 4 -0.32 4 -1 4 C-1 4.66 -1 5.32 -1 6 C-1.66 5.67 -2.32 5.34 -3 5 C-2.67 4.01 -2.34 3.02 -2 2 C-1.34 2 -0.68 2 0 2 C0 1.34 0 0.68 0 0 Z " fill="#67A6BE" transform="translate(1482,1272)"/>
<path d="M0 0 C0.33 0.99 0.66 1.98 1 3 C1.99 2.01 2.98 1.02 4 0 C4.33 1.65 4.66 3.3 5 5 C4.34 5 3.68 5 3 5 C2.67 5.66 2.34 6.32 2 7 C0 4 0 4 0 0 Z " fill="#29434A" transform="translate(694,932)"/>
<path d="M0 0 C0.99 0 1.98 0 3 0 C2.6875 1.875 2.6875 1.875 2 4 C1.01 4.66 0.02 5.32 -1 6 C-1.625 4.125 -1.625 4.125 -2 2 C-1.34 1.34 -0.68 0.68 0 0 Z " fill="#263C40" transform="translate(1113,886)"/>
<path d="M0 0 C2.34058637 2.12780579 3.70700306 4.11562221 5 7 C3.02 6.34 1.04 5.68 -1 5 C-0.67 3.35 -0.34 1.7 0 0 Z " fill="#465D62" transform="translate(778,810)"/>
<path d="M0 0 C2.475 0.495 2.475 0.495 5 1 C4.67 2.65 4.34 4.3 4 6 C0 1.125 0 1.125 0 0 Z " fill="#354952" transform="translate(589,770)"/>
<path d="M0 0 C0.33 1.32 0.66 2.64 1 4 C-0.98 4 -2.96 4 -5 4 C-4.67 3.01 -4.34 2.02 -4 1 C-2 0 -2 0 0 0 Z " fill="#07252F" transform="translate(1482,768)"/>
<path d="M0 0 C0.66 0.33 1.32 0.66 2 1 C1.67 1.66 1.34 2.32 1 3 C0.34 3 -0.32 3 -1 3 C-1.33 3.99 -1.66 4.98 -2 6 C-3.32 6.33 -4.64 6.66 -6 7 C-4.02 4.69 -2.04 2.38 0 0 Z " fill="#02314B" transform="translate(1198,733)"/>
<path d="M0 0 C0.99 0 1.98 0 3 0 C1.63016497 3.16115776 1.0109362 3.9927092 -2 6 C-2.33 4.68 -2.66 3.36 -3 2 C-2.01 2 -1.02 2 0 2 C0 1.34 0 0.68 0 0 Z " fill="#1E7DB1" transform="translate(1193,734)"/>
</svg>